<svg width="41" height="41" viewBox="0 0 41 41" fill="none" xmlns="http://www.w3.org/2000/svg">
<path d="M20.1875 40.083C31.2332 40.083 40.1875 31.1287 40.1875 20.083C40.1875 9.03731 31.2332 0.0830078 20.1875 0.0830078C9.1418 0.0830078 0.1875 9.03731 0.1875 20.083C0.1875 31.1287 9.1418 40.083 20.1875 40.083Z" fill="url(#paint0_linear_206_3071)"/>
<path d="M29.1875 15.0365C29.1881 14.9247 29.1667 14.8138 29.1244 14.7102C29.0821 14.6066 29.0198 14.5125 28.941 14.433L25.337 10.829C25.2576 10.7503 25.1634 10.6879 25.0598 10.6456C24.9563 10.6033 24.8454 10.5819 24.7335 10.5825C24.6216 10.5819 24.5107 10.6033 24.4072 10.6456C24.3036 10.6879 24.2094 10.7503 24.13 10.829L21.7245 13.2345L12.434 22.525C12.3552 22.6044 12.2929 22.6986 12.2506 22.8022C12.2083 22.9058 12.1869 23.0166 12.1875 23.1285V26.7325C12.1875 26.9579 12.2771 27.1741 12.4365 27.3335C12.5959 27.493 12.8121 27.5825 13.0375 27.5825H16.6415C16.7604 27.589 16.8794 27.5704 16.9907 27.5279C17.102 27.4854 17.2031 27.4201 17.2875 27.336L26.527 18.0455L28.941 15.6825C29.0186 15.6001 29.0818 15.5053 29.128 15.402C29.1362 15.3343 29.1362 15.2658 29.128 15.198C29.132 15.1585 29.132 15.1186 29.128 15.079L29.1875 15.0365ZM16.293 25.8825H13.8875V23.477L22.328 15.0365L24.7335 17.442L16.293 25.8825ZM25.932 16.2435L23.5265 13.838L24.7335 12.6395L27.1305 15.0365L25.932 16.2435Z" fill="white"/>
<defs>
<linearGradient id="paint0_linear_206_3071" x1="6.80656" y1="5.91634" x2="31.3899" y2="35.9163" gradientUnits="userSpaceOnUse">
<stop stop-color="#5E72E4"/>
<stop offset="1" stop-color="#825EE4"/>
</linearGradient>
</defs>
</svg>
