<svg width="20" height="18" viewBox="0 0 20 18" fill="none" xmlns="http://www.w3.org/2000/svg">
<path d="M18.2697 2.89053H9.27839C8.96047 2.89053 8.665 2.73344 8.48922 2.46789L7.15398 0.463165C6.97819 0.197614 6.68272 0.0405273 6.36481 0.0405273H1.16973C0.646105 0.0405273 0.219727 0.466905 0.219727 0.990527V4.59978C0.219727 4.7045 0.30575 4.79053 0.410475 4.79053H19.029C19.1337 4.79053 19.2197 4.7045 19.2197 4.59978V3.84053C19.2197 3.31691 18.7933 2.89053 18.2697 2.89053Z" fill="#304CB2"/>
<path d="M19.029 6.68994H0.410475C0.30575 6.68994 0.219727 6.77597 0.219727 6.88069V16.1899C0.219727 16.7136 0.646105 17.1399 1.16973 17.1399H18.2697C18.7933 17.1399 19.2197 16.7136 19.2197 16.1899V6.88069C19.2197 6.77597 19.1337 6.68994 19.029 6.68994ZM12.4837 12.8986L9.92918 15.1539C9.81323 15.2699 9.62622 15.2699 9.51028 15.1539L6.95575 12.8986C6.76874 12.7116 6.89965 12.3899 7.1652 12.3899H8.76973V8.97144C8.76973 8.76199 8.93803 8.58994 9.15122 8.58994H10.292C10.5014 8.58994 10.6735 8.75825 10.6735 8.97144V12.3899H12.278C12.5361 12.3899 12.6707 12.7116 12.4837 12.8986Z" fill="#304CB2"/>
</svg>
