<svg width="41" height="41" viewBox="0 0 41 41" fill="none" xmlns="http://www.w3.org/2000/svg">
<path d="M20.1875 40.083C31.2332 40.083 40.1875 31.1287 40.1875 20.083C40.1875 9.03731 31.2332 0.0830078 20.1875 0.0830078C9.1418 0.0830078 0.1875 9.03731 0.1875 20.083C0.1875 31.1287 9.1418 40.083 20.1875 40.083Z" fill="url(#paint0_linear_206_3068)"/>
<path d="M20.6875 10.583C18.8086 10.583 16.9719 11.1402 15.4096 12.184C13.8473 13.2279 12.6297 14.7116 11.9106 16.4475C11.1916 18.1834 11.0035 20.0935 11.37 21.9364C11.7366 23.7792 12.6414 25.4719 13.97 26.8005C15.2986 28.1291 16.9913 29.0339 18.8341 29.4005C20.677 29.767 22.5871 29.5789 24.323 28.8599C26.0589 28.1408 27.5426 26.9232 28.5865 25.3609C29.6303 23.7987 30.1875 21.9619 30.1875 20.083C30.1875 17.5634 29.1866 15.1471 27.405 13.3655C25.6234 11.5839 23.2071 10.583 20.6875 10.583ZM25.033 26.3898C23.5581 27.4023 21.7753 27.8668 19.9938 27.7027C18.2124 27.5385 16.5445 26.7561 15.2795 25.491C14.0144 24.226 13.232 22.5581 13.0679 20.7767C12.9037 18.9952 13.3682 17.2124 14.3807 15.7375L14.5891 15.4311L25.3364 26.1783L25.033 26.3898ZM26.8717 24.6093L26.6602 24.8974L15.8731 14.1164L16.1612 13.9049C17.4719 12.9379 19.0587 12.4179 20.6875 12.4217C22.1023 12.4229 23.4892 12.8158 24.6943 13.5569C25.8995 14.298 26.8759 15.3583 27.5154 16.6204C28.1548 17.8825 28.4323 19.2969 28.3171 20.707C28.2018 22.1171 27.6984 23.4678 26.8625 24.6093H26.8717Z" fill="white"/>
<defs>
<linearGradient id="paint0_linear_206_3068" x1="6.80656" y1="5.91634" x2="31.3899" y2="35.9163" gradientUnits="userSpaceOnUse">
<stop stop-color="#FFA2A2"/>
<stop offset="1" stop-color="#E83333"/>
</linearGradient>
</defs>
</svg>
