<svg width="41" height="41" viewBox="0 0 41 41" fill="none" xmlns="http://www.w3.org/2000/svg">
<path fill-rule="evenodd" clip-rule="evenodd" d="M27.8105 21.9294H21.5605V28.1794C21.5605 28.8669 21.0018 29.4294 20.3105 29.4294C19.6193 29.4294 19.0605 28.8669 19.0605 28.1794V21.9294H12.8105C12.1193 21.9294 11.5605 21.3669 11.5605 20.6794C11.5605 19.9919 12.1193 19.4294 12.8105 19.4294H19.0605V13.1794C19.0605 12.4919 19.6193 11.9294 20.3105 11.9294C21.0018 11.9294 21.5605 12.4919 21.5605 13.1794V19.4294H27.8105C28.5018 19.4294 29.0605 19.9919 29.0605 20.6794C29.0605 21.3669 28.5018 21.9294 27.8105 21.9294ZM20.3105 0.679443C9.2643 0.679443 0.310547 9.62944 0.310547 20.6794C0.310547 31.7294 9.2643 40.6794 20.3105 40.6794C31.3568 40.6794 40.3105 31.7294 40.3105 20.6794C40.3105 9.62944 31.3568 0.679443 20.3105 0.679443Z" fill="url(#paint0_linear_3844_2033)"/>
<defs>
<linearGradient id="paint0_linear_3844_2033" x1="11.7445" y1="4.64973" x2="30.8199" y2="37.4462" gradientUnits="userSpaceOnUse">
<stop stop-color="#3EE7D4"/>
<stop offset="1" stop-color="#19A191"/>
</linearGradient>
</defs>
</svg>
