<svg width="169" height="60" viewBox="0 0 169 60" fill="none" xmlns="http://www.w3.org/2000/svg">
<path d="M1 0.875H159C164.523 0.875 169 5.35215 169 10.875V30.875C169 36.3978 164.523 40.875 159 40.875H1V0.875Z" fill="#1E1B39"/>
<path d="M39.3395 17.3281C39.2732 16.7079 38.9938 16.2249 38.5014 15.8793C38.0137 15.5336 37.3793 15.3608 36.598 15.3608C36.0488 15.3608 35.5777 15.4437 35.1847 15.6094C34.7917 15.7751 34.491 16 34.2827 16.2841C34.0743 16.5682 33.9678 16.8925 33.9631 17.2571C33.9631 17.5601 34.0317 17.8229 34.169 18.0455C34.3111 18.268 34.5028 18.4574 34.7443 18.6136C34.9858 18.7652 35.2533 18.893 35.5469 18.9972C35.8404 19.1013 36.1364 19.1889 36.4347 19.2599L37.7983 19.6009C38.3475 19.7287 38.8755 19.9015 39.3821 20.1193C39.8935 20.3371 40.3504 20.6117 40.7528 20.9432C41.16 21.2746 41.482 21.6747 41.7188 22.1435C41.9555 22.6122 42.0739 23.1615 42.0739 23.7912C42.0739 24.6435 41.8561 25.3939 41.4205 26.0426C40.9848 26.6866 40.3551 27.1908 39.5312 27.5554C38.7121 27.9152 37.7202 28.0952 36.5554 28.0952C35.4238 28.0952 34.4413 27.92 33.608 27.5696C32.7794 27.2192 32.1307 26.7079 31.6619 26.0355C31.1979 25.3632 30.947 24.544 30.9091 23.5781H33.5014C33.5393 24.0848 33.6955 24.5062 33.9702 24.8423C34.2448 25.1785 34.6023 25.4295 35.0426 25.5952C35.4877 25.7609 35.9848 25.8438 36.5341 25.8438C37.107 25.8438 37.6089 25.7585 38.0398 25.5881C38.4754 25.4129 38.8163 25.1714 39.0625 24.8636C39.3087 24.5511 39.4342 24.1866 39.4389 23.7699C39.4342 23.3911 39.3229 23.0786 39.1051 22.8324C38.8873 22.5814 38.5819 22.3731 38.1889 22.2074C37.8007 22.0369 37.3461 21.8854 36.8253 21.7528L35.1705 21.3267C33.9725 21.0189 33.0256 20.5526 32.3295 19.9276C31.6383 19.2978 31.2926 18.4621 31.2926 17.4205C31.2926 16.5634 31.5246 15.813 31.9886 15.169C32.4574 14.5251 33.0942 14.0256 33.8991 13.6705C34.7041 13.3106 35.6155 13.1307 36.6335 13.1307C37.6657 13.1307 38.5701 13.3106 39.3466 13.6705C40.1278 14.0256 40.741 14.5204 41.1861 15.1548C41.6312 15.7846 41.8608 16.509 41.875 17.3281H39.3395ZM43.7837 15.5384V13.3295H55.3888V15.5384H50.8931V27.875H48.2795V15.5384H43.7837ZM57.7362 27.875H54.9237L60.0444 13.3295H63.2972L68.4251 27.875H65.6126L61.7276 16.3125H61.614L57.7362 27.875ZM57.8285 22.1719H65.4989V24.2884H57.8285V22.1719ZM82.294 13.3295V27.875H79.9503L73.0966 17.9673H72.9759V27.875H70.3409V13.3295H72.6989L79.5455 23.2443H79.6733V13.3295H82.294ZM90.0941 27.875H85.1651V13.3295H90.1935C91.6377 13.3295 92.8782 13.6207 93.9151 14.2031C94.9568 14.7808 95.757 15.6117 96.3157 16.696C96.8744 17.7803 97.1538 19.0777 97.1538 20.5881C97.1538 22.1032 96.872 23.4053 96.3086 24.4943C95.7499 25.5833 94.9426 26.419 93.8867 27.0014C92.8356 27.5838 91.5714 27.875 90.0941 27.875ZM87.8001 25.5952H89.9663C90.9795 25.5952 91.8247 25.4105 92.5018 25.0412C93.1789 24.6671 93.6879 24.1108 94.0288 23.3722C94.3697 22.6288 94.5401 21.7008 94.5401 20.5881C94.5401 19.4754 94.3697 18.5521 94.0288 17.8182C93.6879 17.0795 93.1836 16.5279 92.516 16.1634C91.8531 15.794 91.0292 15.6094 90.0444 15.6094H87.8001V25.5952ZM100.744 27.875H97.9315L103.052 13.3295H106.305L111.433 27.875H108.62L104.735 16.3125H104.622L100.744 27.875ZM100.836 22.1719H108.507V24.2884H100.836V22.1719ZM113.349 27.875V13.3295H118.803C119.921 13.3295 120.858 13.5237 121.616 13.9119C122.378 14.3002 122.953 14.8447 123.342 15.5455C123.735 16.2415 123.931 17.0535 123.931 17.9815C123.931 18.9143 123.732 19.724 123.335 20.4105C122.942 21.0923 122.362 21.6203 121.594 21.9943C120.827 22.3636 119.885 22.5483 118.768 22.5483H114.883V20.3608H118.413C119.066 20.3608 119.601 20.2708 120.018 20.0909C120.434 19.9062 120.742 19.6387 120.941 19.2884C121.145 18.9332 121.246 18.4976 121.246 17.9815C121.246 17.4654 121.145 17.0251 120.941 16.6605C120.737 16.2912 120.427 16.0118 120.011 15.8224C119.594 15.6283 119.057 15.5312 118.398 15.5312H115.984V27.875H113.349ZM120.863 21.2841L124.464 27.875H121.523L117.987 21.2841H120.863ZM131.286 27.875H126.357V13.3295H131.385C132.829 13.3295 134.07 13.6207 135.107 14.2031C136.148 14.7808 136.948 15.6117 137.507 16.696C138.066 17.7803 138.345 19.0777 138.345 20.5881C138.345 22.1032 138.063 23.4053 137.5 24.4943C136.941 25.5833 136.134 26.419 135.078 27.0014C134.027 27.5838 132.763 27.875 131.286 27.875ZM128.991 25.5952H131.158C132.171 25.5952 133.016 25.4105 133.693 25.0412C134.37 24.6671 134.879 24.1108 135.22 23.3722C135.561 22.6288 135.732 21.7008 135.732 20.5881C135.732 19.4754 135.561 18.5521 135.22 17.8182C134.879 17.0795 134.375 16.5279 133.707 16.1634C133.045 15.794 132.221 15.6094 131.236 15.6094H128.991V25.5952Z" fill="white"/>
<path d="M0.875 41H12.75V59.125L0.875 41Z" fill="#1E1B39"/>
</svg>
