<svg width="51" height="51" viewBox="0 0 51 51" fill="none" xmlns="http://www.w3.org/2000/svg">
<path d="M25.5391 50.5C39.3462 50.5 50.5391 39.3071 50.5391 25.5C50.5391 11.6929 39.3462 0.5 25.5391 0.5C11.7319 0.5 0.539062 11.6929 0.539062 25.5C0.539062 39.3071 11.7319 50.5 25.5391 50.5Z" fill="url(#paint0_linear_425_1957)"/>
<path d="M27.1797 29.7484H23.8984C23.3529 29.7484 22.9141 29.3095 22.9141 28.764V21.8734H19.317C18.5869 21.8734 18.2219 20.9916 18.7387 20.4748L24.9771 14.2322C25.2848 13.9246 25.7893 13.9246 26.0969 14.2322L32.3395 20.4748C32.8562 20.9916 32.4912 21.8734 31.7611 21.8734H28.1641V28.764C28.1641 29.3095 27.7252 29.7484 27.1797 29.7484ZM36.0391 29.4203V34.014C36.0391 34.5595 35.6002 34.9984 35.0547 34.9984H16.0234C15.4779 34.9984 15.0391 34.5595 15.0391 34.014V29.4203C15.0391 28.8748 15.4779 28.4359 16.0234 28.4359H21.6016V28.764C21.6016 30.0314 22.6311 31.0609 23.8984 31.0609H27.1797C28.4471 31.0609 29.4766 30.0314 29.4766 28.764V28.4359H35.0547C35.6002 28.4359 36.0391 28.8748 36.0391 29.4203ZM30.9531 33.0296C30.9531 32.5785 30.584 32.2093 30.1328 32.2093C29.6816 32.2093 29.3125 32.5785 29.3125 33.0296C29.3125 33.4808 29.6816 33.85 30.1328 33.85C30.584 33.85 30.9531 33.4808 30.9531 33.0296ZM33.5781 33.0296C33.5781 32.5785 33.209 32.2093 32.7578 32.2093C32.3066 32.2093 31.9375 32.5785 31.9375 33.0296C31.9375 33.4808 32.3066 33.85 32.7578 33.85C33.209 33.85 33.5781 33.4808 33.5781 33.0296Z" fill="white"/>
<defs>
<linearGradient id="paint0_linear_425_1957" x1="8.81289" y1="7.79167" x2="39.5421" y2="45.2917" gradientUnits="userSpaceOnUse">
<stop stop-color="#2DCEBC"/>
<stop offset="1" stop-color="#2DCE96"/>
</linearGradient>
</defs>
</svg>
