<svg width="51" height="50" viewBox="0 0 51 50" fill="none" xmlns="http://www.w3.org/2000/svg">
<path d="M25.5439 50C39.3511 50 50.5439 38.8071 50.5439 25C50.5439 11.1929 39.3511 0 25.5439 0C11.7368 0 0.543945 11.1929 0.543945 25C0.543945 38.8071 11.7368 50 25.5439 50Z" fill="url(#paint0_linear_425_1965)"/>
<path d="M36.0299 19.929C36.0228 19.929 36.0228 19.9219 36.0228 19.9219C36.0088 19.8304 35.9736 19.746 35.9314 19.6615C35.9243 19.6475 35.9173 19.6264 35.9032 19.6053C35.8539 19.5278 35.8047 19.4504 35.7343 19.3801L29.401 13.0467C29.3376 12.9834 29.2602 12.9341 29.1828 12.8849C29.1617 12.8708 29.1406 12.8638 29.1195 12.8497C29.0421 12.8145 28.9576 12.7793 28.8662 12.7582C28.8591 12.7582 28.8591 12.7582 28.8521 12.7582C28.7888 12.7512 28.7254 12.7441 28.6551 12.7441H19.5069C18.1488 12.7441 17.0439 13.849 17.0439 15.2071V32.7927C17.0439 34.1508 18.1488 35.2556 19.5069 35.2556H33.581C34.9391 35.2556 36.0439 34.1508 36.0439 32.7927V20.133C36.0439 20.0627 36.0369 19.9993 36.0299 19.929ZM31.7514 27.5501C31.7443 27.5571 31.7443 27.5641 31.7443 27.5641C31.688 27.6978 31.6106 27.8175 31.5121 27.909L29.401 30.0201C29.1969 30.2312 28.9295 30.3297 28.6551 30.3297C28.3876 30.3297 28.1202 30.2312 27.9091 30.0201C27.501 29.6119 27.501 28.9434 27.9091 28.5282L28.2188 28.2186H22.3217C21.7447 28.2186 21.2662 27.7471 21.2662 27.163C21.2662 26.586 21.7447 26.1075 22.3217 26.1075H28.2188L27.9091 25.7978C27.501 25.3897 27.501 24.7212 27.9091 24.306C28.3243 23.8978 28.9928 23.8978 29.401 24.306L31.5121 26.4171C31.6106 26.5156 31.688 26.6353 31.7443 26.7619C31.7443 26.769 31.7443 26.776 31.7514 26.783C31.7936 26.9027 31.8217 27.0293 31.8217 27.163C31.8217 27.3038 31.7936 27.4304 31.7514 27.5501ZM30.0625 19.0775C29.8725 19.0775 29.7106 18.9156 29.7106 18.7256V16.3471L32.441 19.0775H30.0625Z" fill="white"/>
<defs>
<linearGradient id="paint0_linear_425_1965" x1="8.81777" y1="7.29167" x2="39.5469" y2="44.7917" gradientUnits="userSpaceOnUse">
<stop stop-color="#5E72E4"/>
<stop offset="1" stop-color="#825EE4"/>
</linearGradient>
</defs>
</svg>
