<svg width="51" height="51" viewBox="0 0 51 51" fill="none" xmlns="http://www.w3.org/2000/svg">
<path d="M25.9307 50.5C39.7378 50.5 50.9307 39.3071 50.9307 25.5C50.9307 11.6929 39.7378 0.5 25.9307 0.5C12.1235 0.5 0.930664 11.6929 0.930664 25.5C0.930664 39.3071 12.1235 50.5 25.9307 50.5Z" fill="url(#paint0_linear_425_1939)"/>
<path d="M36.2807 18.4908H25.3964C25.0116 18.4908 24.6539 18.3006 24.4411 17.9792L22.8248 15.5524C22.612 15.2309 22.2543 15.0408 21.8694 15.0408H15.5807C14.9468 15.0408 14.4307 15.5569 14.4307 16.1908V20.5599C14.4307 20.6866 14.5348 20.7908 14.6616 20.7908H37.1998C37.3265 20.7908 37.4307 20.6866 37.4307 20.5599V19.6408C37.4307 19.0069 36.9145 18.4908 36.2807 18.4908Z" fill="white"/>
<path d="M37.1998 23.0908H14.6616C14.5348 23.0908 14.4307 23.195 14.4307 23.3217V34.5908C14.4307 35.2247 14.9468 35.7408 15.5807 35.7408H36.2807C36.9145 35.7408 37.4307 35.2247 37.4307 34.5908V23.3217C37.4307 23.195 37.3265 23.0908 37.1998 23.0908ZM29.2765 30.6066L26.1842 33.3367C26.0439 33.477 25.8175 33.477 25.6771 33.3367L22.5848 30.6066C22.3584 30.3802 22.5169 29.9908 22.8383 29.9908H24.7807V25.8526C24.7807 25.5991 24.9844 25.3908 25.2425 25.3908H26.6234C26.8769 25.3908 27.0852 25.5946 27.0852 25.8526V29.9908H29.0275C29.3399 29.9908 29.5029 30.3802 29.2765 30.6066Z" fill="white"/>
<defs>
<linearGradient id="paint0_linear_425_1939" x1="9.20449" y1="7.79167" x2="39.9337" y2="45.2917" gradientUnits="userSpaceOnUse">
<stop stop-color="#FFB272"/>
<stop offset="1" stop-color="#E88533"/>
</linearGradient>
</defs>
</svg>
