<svg width="50" height="50" viewBox="0 0 50 50" fill="none" xmlns="http://www.w3.org/2000/svg">
<path d="M25 50C38.8071 50 50 38.8071 50 25C50 11.1929 38.8071 0 25 0C11.1929 0 0 11.1929 0 25C0 38.8071 11.1929 50 25 50Z" fill="url(#paint0_linear_425_1949)"/>
<path d="M25 26.4375C28.5713 26.4375 31.4688 23.54 31.4688 19.9688C31.4688 16.3975 28.5713 13.5 25 13.5C21.4287 13.5 18.5312 16.3975 18.5312 19.9688C18.5312 23.54 21.4287 26.4375 25 26.4375ZM30.75 27.875H28.2748C27.2775 28.3332 26.168 28.5938 25 28.5938C23.832 28.5938 22.727 28.3332 21.7252 27.875H19.25C16.074 27.875 13.5 30.449 13.5 33.625V34.3438C13.5 35.5342 14.4658 36.5 15.6562 36.5H34.3438C35.5342 36.5 36.5 35.5342 36.5 34.3438V33.625C36.5 30.449 33.926 27.875 30.75 27.875Z" fill="white"/>
<defs>
<linearGradient id="paint0_linear_425_1949" x1="8.27382" y1="7.29167" x2="39.003" y2="44.7917" gradientUnits="userSpaceOnUse">
<stop stop-color="#0093FE"/>
<stop offset="1" stop-color="#71D4FF"/>
</linearGradient>
</defs>
</svg>
