<svg width="22" height="22" viewBox="0 0 22 22" fill="none" xmlns="http://www.w3.org/2000/svg">
<path d="M18.8782 0.581543H2.37817C1.13599 0.581543 0.128174 1.58936 0.128174 2.83154V19.3315C0.128174 20.5737 1.13599 21.5815 2.37817 21.5815H18.8782C20.1204 21.5815 21.1282 20.5737 21.1282 19.3315V2.83154C21.1282 1.58936 20.1204 0.581543 18.8782 0.581543ZM7.62817 16.3315C7.62817 16.7459 7.29255 17.0815 6.87817 17.0815H5.37817C4.9638 17.0815 4.62817 16.7459 4.62817 16.3315V10.3315C4.62817 9.91717 4.9638 9.58154 5.37817 9.58154H6.87817C7.29255 9.58154 7.62817 9.91717 7.62817 10.3315V16.3315ZM12.1282 16.3315C12.1282 16.7459 11.7925 17.0815 11.3782 17.0815H9.87817C9.4638 17.0815 9.12817 16.7459 9.12817 16.3315V5.83154C9.12817 5.41717 9.4638 5.08154 9.87817 5.08154H11.3782C11.7925 5.08154 12.1282 5.41717 12.1282 5.83154V16.3315ZM16.6282 16.3315C16.6282 16.7459 16.2925 17.0815 15.8782 17.0815H14.3782C13.9638 17.0815 13.6282 16.7459 13.6282 16.3315V13.3315C13.6282 12.9172 13.9638 12.5815 14.3782 12.5815H15.8782C16.2925 12.5815 16.6282 12.9172 16.6282 13.3315V16.3315Z" fill="#304CB2"/>
</svg>
