<svg width="16" height="21" viewBox="0 0 16 21" fill="none" xmlns="http://www.w3.org/2000/svg">
<path d="M11.8125 10.5H3.9375V13.125H11.8125V10.5ZM15.4629 4.30664L11.4475 0.287109C11.2629 0.102539 11.0127 0 10.7502 0H10.5V5.25H15.75V4.9998C15.75 4.74141 15.6475 4.49121 15.4629 4.30664ZM9.1875 5.57812V0H0.984375C0.438867 0 0 0.438867 0 0.984375V20.0156C0 20.5611 0.438867 21 0.984375 21H14.7656C15.3111 21 15.75 20.5611 15.75 20.0156V6.5625H10.1719C9.63047 6.5625 9.1875 6.11953 9.1875 5.57812ZM2.625 2.95312C2.625 2.77184 2.77184 2.625 2.95312 2.625H6.23438C6.41566 2.625 6.5625 2.77184 6.5625 2.95312V3.60937C6.5625 3.79066 6.41566 3.9375 6.23438 3.9375H2.95312C2.77184 3.9375 2.625 3.79066 2.625 3.60937V2.95312ZM2.625 5.57812C2.625 5.39684 2.77184 5.25 2.95312 5.25H6.23438C6.41566 5.25 6.5625 5.39684 6.5625 5.57812V6.23437C6.5625 6.41566 6.41566 6.5625 6.23438 6.5625H2.95312C2.77184 6.5625 2.625 6.41566 2.625 6.23437V5.57812ZM13.125 18.0469C13.125 18.2282 12.9782 18.375 12.7969 18.375H9.51562C9.33434 18.375 9.1875 18.2282 9.1875 18.0469V17.3906C9.1875 17.2093 9.33434 17.0625 9.51562 17.0625H12.7969C12.9782 17.0625 13.125 17.2093 13.125 17.3906V18.0469ZM13.125 9.84375V13.7812C13.125 14.1438 12.8313 14.4375 12.4688 14.4375H3.28125C2.91867 14.4375 2.625 14.1438 2.625 13.7812V9.84375C2.625 9.48117 2.91867 9.1875 3.28125 9.1875H12.4688C12.8313 9.1875 13.125 9.48117 13.125 9.84375Z" fill="#304CB2"/>
</svg>
