<svg width="41" height="41" viewBox="0 0 41 41" fill="none" xmlns="http://www.w3.org/2000/svg">
<path fill-rule="evenodd" clip-rule="evenodd" d="M20.3105 40.6794C31.3562 40.6794 40.3105 31.7251 40.3105 20.6794C40.3105 9.63379 31.3562 0.679443 20.3105 0.679443C9.26489 0.679443 0.310547 9.63379 0.310547 20.6794C0.310547 31.7251 9.26489 40.6794 20.3105 40.6794ZM18.3105 13.6794C18.3105 13.1272 18.7583 12.6794 19.3105 12.6794H21.3105C21.8628 12.6794 22.3105 13.1272 22.3105 13.6794V14.6794H18.3105V13.6794ZM24.3105 13.6794V14.6794H26.3105H28.3105C28.8628 14.6794 29.3105 15.1272 29.3105 15.6794C29.3105 16.2317 28.8628 16.6794 28.3105 16.6794H27.3105V26.6794C27.3105 28.8887 25.5198 30.6794 23.3105 30.6794H17.3105C15.1013 30.6794 13.3105 28.8887 13.3105 26.6794V16.6794H12.3105C11.7583 16.6794 11.3105 16.2317 11.3105 15.6794C11.3105 15.1272 11.7583 14.6794 12.3105 14.6794H14.3105H16.3105V13.6794C16.3105 12.0227 17.6538 10.6794 19.3105 10.6794H21.3105C22.9675 10.6794 24.3105 12.0227 24.3105 13.6794ZM15.3105 26.6794V16.6794H25.3105V26.6794C25.3105 27.7842 24.4153 28.6794 23.3105 28.6794H17.3105C16.2061 28.6794 15.3105 27.7839 15.3105 26.6794ZM19.3105 19.6794C19.3105 19.1272 18.8628 18.6794 18.3105 18.6794C17.7583 18.6794 17.3105 19.1272 17.3105 19.6794V25.6794C17.3105 26.2317 17.7583 26.6794 18.3105 26.6794C18.8628 26.6794 19.3105 26.2317 19.3105 25.6794V19.6794ZM22.3105 18.6794C21.7583 18.6794 21.3105 19.1272 21.3105 19.6794V25.6794C21.3105 26.2317 21.7583 26.6794 22.3105 26.6794C22.8628 26.6794 23.3105 26.2317 23.3105 25.6794V19.6794C23.3105 19.1272 22.8628 18.6794 22.3105 18.6794Z" fill="url(#paint0_linear_3844_2117)"/>
<defs>
<linearGradient id="paint0_linear_3844_2117" x1="9.10673" y1="5.19956" x2="32.3181" y2="36.1481" gradientUnits="userSpaceOnUse">
<stop stop-color="#FFA0A0"/>
<stop offset="1" stop-color="#F05555"/>
</linearGradient>
</defs>
</svg>
