<svg width="41" height="41" viewBox="0 0 41 41" fill="none" xmlns="http://www.w3.org/2000/svg">
<path d="M40.8975 20.6794C40.8975 31.7251 31.9432 40.6794 20.8975 40.6794C9.85177 40.6794 0.897461 31.7251 0.897461 20.6794C0.897461 9.63375 9.85177 0.679443 20.8975 0.679443C31.9432 0.679443 40.8975 9.63375 40.8975 20.6794Z" fill="url(#paint0_linear_4127_2044)"/>
<path d="M10.4561 20.6797C10.4561 26.4131 15.1401 31.0776 20.8975 31.0776C26.6548 31.0776 31.3388 26.4131 31.3388 20.6797C31.3388 14.9462 26.6548 10.2817 20.8975 10.2817C15.1401 10.2817 10.4561 14.9462 10.4561 20.6797ZM20.8975 13.1364C25.0743 13.1364 28.4725 16.5204 28.4725 20.6798C28.4725 22.2448 27.9911 23.6998 27.1686 24.9062L16.6533 14.4348C17.8649 13.6157 19.326 13.1364 20.8975 13.1364ZM25.1416 26.9246C23.93 27.7438 22.469 28.2231 20.8975 28.2231C16.7207 28.2231 13.3226 24.8391 13.3226 20.6797C13.3226 19.1147 13.804 17.6598 14.6264 16.4533L25.1416 26.9246Z" fill="white"/>
<defs>
<linearGradient id="paint0_linear_4127_2044" x1="9.92832" y1="3.898" x2="31.9731" y2="36.5467" gradientUnits="userSpaceOnUse">
<stop stop-color="#FE9D9D"/>
<stop offset="1" stop-color="#F05959"/>
</linearGradient>
</defs>
</svg>
