<svg width="41" height="41" viewBox="0 0 41 41" fill="none" xmlns="http://www.w3.org/2000/svg">
<path fill-rule="evenodd" clip-rule="evenodd" d="M20.3105 40.6794C31.3562 40.6794 40.3105 31.7251 40.3105 20.6794C40.3105 9.63379 31.3562 0.679443 20.3105 0.679443C9.26489 0.679443 0.310547 9.63379 0.310547 20.6794C0.310547 31.7251 9.26489 40.6794 20.3105 40.6794ZM24.6023 13.7107L24.6294 13.6885L24.6562 13.7107C24.7483 13.7888 24.8672 13.9062 25.0811 14.1204L26.8672 15.9065C27.082 16.1213 27.2002 16.2407 27.2788 16.3333L27.3015 16.3608L27.2791 16.3882C27.2014 16.4797 27.0847 16.5974 26.8735 16.8086L26.8672 16.8152L24.6294 19.0527L21.9373 16.3608L24.1682 14.1296L24.177 14.1211C24.3914 13.907 24.51 13.7891 24.6023 13.7107ZM20.5232 17.7749L23.2151 20.467L16.0027 27.6797H13.3105V24.9875L20.5232 17.7749ZM25.2559 11.7786C24.8486 11.6465 24.4104 11.6465 24.0032 11.7786C23.8589 11.8254 23.731 11.8887 23.6172 11.9585C23.5002 12.0303 23.3982 12.1094 23.3081 12.186C23.1455 12.324 22.9683 12.5015 22.7852 12.6846L22.7693 12.7004L22.7607 12.7087L19.8159 15.6538L11.6035 23.8662C11.416 24.0537 11.3105 24.3081 11.3105 24.5732V28.6797C11.3105 29.2319 11.7583 29.6797 12.3105 29.6797H16.4167C16.6821 29.6797 16.9365 29.5742 17.124 29.3867L25.3364 21.1741L28.2615 18.2488L27.6064 17.5544L28.2822 18.2285L28.3049 18.2058C28.4883 18.0225 28.6658 17.845 28.8037 17.6824C28.9138 17.553 29.0293 17.3989 29.1206 17.2117C29.1548 17.1416 29.1855 17.0669 29.2114 16.9871C29.3435 16.5803 29.3438 16.1421 29.2114 15.7346C29.1162 15.4419 28.9548 15.217 28.8035 15.0388C28.6655 14.8762 28.4878 14.6985 28.3042 14.5149L28.2812 14.4922L26.4954 12.7063L26.4729 12.6838C26.29 12.501 26.1128 12.3235 25.9504 12.1858C25.7727 12.0349 25.5481 11.8738 25.2559 11.7786Z" fill="url(#paint0_linear_3844_2086)"/>
<defs>
<linearGradient id="paint0_linear_3844_2086" x1="9.03847" y1="6.65767" x2="32.4645" y2="36.7769" gradientUnits="userSpaceOnUse">
<stop stop-color="#64E1FC"/>
<stop offset="1" stop-color="#3088BF"/>
</linearGradient>
</defs>
</svg>
