<svg width="41" height="41" viewBox="0 0 41 41" fill="none" xmlns="http://www.w3.org/2000/svg">
<path d="M40.7732 20.0608C40.7732 31.1065 31.8189 40.0608 20.7732 40.0608C9.7275 40.0608 0.773193 31.1065 0.773193 20.0608C0.773193 9.0151 9.7275 0.060791 20.7732 0.060791C31.8189 0.060791 40.7732 9.0151 40.7732 20.0608Z" fill="url(#paint0_linear_4128_2061)"/>
<path fill-rule="evenodd" clip-rule="evenodd" d="M11.5847 23.1815C11.2356 22.8286 11.0398 22.3522 11.0398 21.8557C11.0398 21.3593 11.2356 20.8829 11.5847 20.5299L12.5404 19.5797C12.7029 19.4157 12.8967 19.2861 13.1103 19.1984C13.3239 19.1108 13.5529 19.0669 13.7838 19.0695C14.0146 19.0721 14.2426 19.121 14.4542 19.2134C14.6658 19.3058 14.8567 19.4397 15.0155 19.6073L16.7038 21.359C16.7843 21.4439 16.8813 21.5116 16.9888 21.5578C17.0963 21.604 17.2121 21.6278 17.3291 21.6278C17.4461 21.6278 17.5619 21.604 17.6694 21.5578C17.7769 21.5116 17.8739 21.4439 17.9544 21.359L26.5584 12.4898C26.7184 12.321 26.9108 12.1864 27.1242 12.0939C27.3375 12.0014 27.5674 11.9531 27.7999 11.9517C28.0324 11.9503 28.2628 11.996 28.4772 12.0859C28.6917 12.1759 28.8857 12.3083 29.0476 12.4752L29.9757 13.4135C30.3162 13.765 30.5067 14.2352 30.5067 14.7247C30.5067 15.2141 30.3162 15.6843 29.9757 16.0358L18.5529 27.6437C18.3935 27.8087 18.2027 27.9402 17.9918 28.0305C17.7809 28.1209 17.5541 28.1682 17.3247 28.1697C17.0952 28.1712 16.8678 28.1269 16.6557 28.0393C16.4437 27.9518 16.2512 27.8228 16.0896 27.6599L11.5847 23.1815Z" fill="white"/>
<defs>
<linearGradient id="paint0_linear_4128_2061" x1="8.98553" y1="1.92262" x2="32.5243" y2="38.1051" gradientUnits="userSpaceOnUse">
<stop stop-color="#3EE7D4"/>
<stop offset="1" stop-color="#1AA392"/>
</linearGradient>
</defs>
</svg>
