<svg width="24" height="25" viewBox="0 0 24 25" fill="none" xmlns="http://www.w3.org/2000/svg">
<path d="M11.9999 16.8299C9.60992 16.8299 7.66992 14.8899 7.66992 12.4999C7.66992 10.1099 9.60992 8.16992 11.9999 8.16992C14.3899 8.16992 16.3299 10.1099 16.3299 12.4999C16.3299 14.8899 14.3899 16.8299 11.9999 16.8299ZM11.9999 9.66992C10.4399 9.66992 9.16992 10.9399 9.16992 12.4999C9.16992 14.0599 10.4399 15.3299 11.9999 15.3299C13.5599 15.3299 14.8299 14.0599 14.8299 12.4999C14.8299 10.9399 13.5599 9.66992 11.9999 9.66992Z" fill="#A4A4AA"/>
<path d="M12.0001 21.52C8.24008 21.52 4.69008 19.32 2.25008 15.5C1.19008 13.85 1.19008 11.16 2.25008 9.49998C4.70008 5.67998 8.25008 3.47998 12.0001 3.47998C15.7501 3.47998 19.3001 5.67998 21.7401 9.49998C22.8001 11.15 22.8001 13.84 21.7401 15.5C19.3001 19.32 15.7501 21.52 12.0001 21.52ZM12.0001 4.97998C8.77008 4.97998 5.68008 6.91998 3.52008 10.31C2.77008 11.48 2.77008 13.52 3.52008 14.69C5.68008 18.08 8.77008 20.02 12.0001 20.02C15.2301 20.02 18.3201 18.08 20.4801 14.69C21.2301 13.52 21.2301 11.48 20.4801 10.31C18.3201 6.91998 15.2301 4.97998 12.0001 4.97998Z" fill="#A4A4AA"/>
</svg>
