<svg width="41" height="41" viewBox="0 0 41 41" fill="none" xmlns="http://www.w3.org/2000/svg">
<path fill-rule="evenodd" clip-rule="evenodd" d="M0.310547 20.6794C0.310547 15.3751 2.41768 10.288 6.16841 6.53731C9.91914 2.78658 15.0062 0.679443 20.3105 0.679443C25.6149 0.679443 30.702 2.78658 34.4527 6.53731C38.2034 10.288 40.3105 15.3751 40.3105 20.6794C40.3105 25.9838 38.2034 31.0709 34.4527 34.8216C30.702 38.5723 25.6149 40.6794 20.3105 40.6794C15.0062 40.6794 9.91914 38.5723 6.16841 34.8216C2.41768 31.0709 0.310547 25.9838 0.310547 20.6794Z" fill="url(#paint0_linear_3844_2039)"/>
<path fill-rule="evenodd" clip-rule="evenodd" d="M20.3105 17.7337L16.3077 13.7309C16.2298 13.6534 16.1374 13.5922 16.0357 13.5508C15.934 13.5095 15.8251 13.4887 15.7153 13.4897C15.6055 13.4908 15.497 13.5137 15.3961 13.557C15.2953 13.6004 15.204 13.6634 15.1277 13.7423L13.3734 15.4966C13.2167 15.6523 13.1277 15.8634 13.1256 16.0842C13.1234 16.3051 13.2084 16.5179 13.362 16.6766L17.362 20.6794L13.362 24.6823C13.2845 24.7601 13.2233 24.8526 13.1819 24.9543C13.1405 25.056 13.1198 25.1649 13.1208 25.2747C13.1219 25.3845 13.1448 25.493 13.1881 25.5939C13.2315 25.6947 13.2945 25.786 13.3734 25.8623L15.1277 27.6166C15.4505 27.9423 15.9848 27.9509 16.3077 27.628L20.3105 23.628L24.3134 27.628C24.3912 27.7055 24.4837 27.7667 24.5854 27.808C24.6871 27.8494 24.796 27.8702 24.9058 27.8691C25.0156 27.8681 25.1241 27.8452 25.2249 27.8018C25.3258 27.7585 25.4171 27.6955 25.4934 27.6166L27.2477 25.8623C27.4043 25.7066 27.4934 25.4955 27.4955 25.2746C27.4976 25.0538 27.4127 24.841 27.2591 24.6823L23.2591 20.6794L27.2591 16.6766C27.3365 16.5987 27.3977 16.5063 27.4391 16.4046C27.4805 16.3029 27.5013 16.194 27.5002 16.0842C27.4992 15.9744 27.4763 15.8659 27.4329 15.765C27.3896 15.6642 27.3266 15.5729 27.2477 15.4966L25.4934 13.7423C25.3377 13.5857 25.1266 13.4966 24.9057 13.4945C24.6849 13.4923 24.4721 13.5773 24.3134 13.7309L20.3105 17.7337Z" fill="white"/>
<defs>
<linearGradient id="paint0_linear_3844_2039" x1="8.81777" y1="7.29167" x2="39.5469" y2="44.7917" gradientUnits="userSpaceOnUse">
<stop stop-color="#FF9696"/>
<stop offset="1" stop-color="#e00404"/>
</linearGradient>
</defs>
</svg>
