<svg width="35" height="35" viewBox="0 0 35 35" fill="none" xmlns="http://www.w3.org/2000/svg">
<circle cx="17.5" cy="17.5" r="17.5" fill="#304CB2"/>
<path d="M16.1719 9H18.8281C19.2697 9 19.625 9.35527 19.625 9.79688V15.375H22.5369C23.1279 15.375 23.4234 16.0889 23.0051 16.5072L17.9549 21.5607C17.7059 21.8098 17.2975 21.8098 17.0484 21.5607L11.9916 16.5072C11.5732 16.0889 11.8687 15.375 12.4598 15.375H15.375V9.79688C15.375 9.35527 15.7303 9 16.1719 9ZM26 21.4844V25.2031C26 25.6447 25.6447 26 25.2031 26H9.79688C9.35527 26 9 25.6447 9 25.2031V21.4844C9 21.0428 9.35527 20.6875 9.79688 20.6875H14.6678L16.2947 22.3145C16.9621 22.9818 18.0379 22.9818 18.7053 22.3145L20.3322 20.6875H25.2031C25.6447 20.6875 26 21.0428 26 21.4844ZM21.8828 24.4062C21.8828 24.041 21.584 23.7422 21.2188 23.7422C20.8535 23.7422 20.5547 24.041 20.5547 24.4062C20.5547 24.7715 20.8535 25.0703 21.2188 25.0703C21.584 25.0703 21.8828 24.7715 21.8828 24.4062ZM24.0078 24.4062C24.0078 24.041 23.709 23.7422 23.3438 23.7422C22.9785 23.7422 22.6797 24.041 22.6797 24.4062C22.6797 24.7715 22.9785 25.0703 23.3438 25.0703C23.709 25.0703 24.0078 24.7715 24.0078 24.4062Z" fill="white"/>
</svg>
