<svg width="41" height="41" viewBox="0 0 41 41" fill="none" xmlns="http://www.w3.org/2000/svg">
<path fill-rule="evenodd" clip-rule="evenodd" d="M20.3105 40.6794C31.3562 40.6794 40.3105 31.7251 40.3105 20.6794C40.3105 9.63379 31.3562 0.679443 20.3105 0.679443C9.26489 0.679443 0.310547 9.63379 0.310547 20.6794C0.310547 31.7251 9.26489 40.6794 20.3105 40.6794ZM21.7805 10.7969C21.8669 10.843 21.947 10.9019 22.0176 10.9724L28.0176 16.9724C28.1343 17.0891 28.2192 17.2317 28.2666 17.3867C28.2954 17.4807 28.3105 17.5793 28.3105 17.6794V26.4795V26.5161C28.3105 27.0439 28.3105 27.4993 28.28 27.8745C28.2476 28.2698 28.1763 28.6631 27.9836 29.0415C27.696 29.606 27.2371 30.0649 26.6726 30.3525C26.438 30.4719 26.1975 30.5447 25.9546 30.5906C25.8057 30.6187 25.6558 30.6365 25.5056 30.6489C25.1218 30.6802 24.6541 30.6794 24.1106 30.6794H16.5105H16.4739C15.946 30.6794 15.4907 30.6794 15.1155 30.6489C14.7202 30.6165 14.3269 30.5452 13.9485 30.3525C13.384 30.0649 12.925 29.606 12.6375 29.0415C12.4448 28.6631 12.3735 28.2698 12.3411 27.8745C12.3098 27.4907 12.3105 27.0229 12.3105 26.4795V14.8794C12.3105 14.3359 12.3098 13.8682 12.3411 13.4844C12.3735 13.0891 12.4448 12.6958 12.6375 12.3174C12.925 11.7529 13.384 11.2939 13.9485 11.0063C14.3269 10.8137 14.7202 10.7424 15.1155 10.71C15.4907 10.6794 15.946 10.6794 16.4739 10.6794H16.5105H21.3105C21.4761 10.6794 21.6372 10.7205 21.7805 10.7969ZM17.3105 20.6794C17.8628 20.6794 18.3105 21.1272 18.3105 21.6794V24.6794C18.3105 25.2317 17.8628 25.6794 17.3105 25.6794C16.7583 25.6794 16.3105 25.2317 16.3105 24.6794V21.6794C16.3105 21.1272 16.7583 20.6794 17.3105 20.6794ZM15.8105 18.6794C15.8105 18.1272 16.2583 17.6794 16.8105 17.6794H17.8105C18.3628 17.6794 18.8105 18.1272 18.8105 18.6794C18.8105 19.2317 18.3628 19.6794 17.8105 19.6794H16.8105C16.2583 19.6794 15.8105 19.2317 15.8105 18.6794ZM15.8105 15.6794C15.8105 15.1272 16.2583 14.6794 16.8105 14.6794H17.8105C18.3628 14.6794 18.8105 15.1272 18.8105 15.6794C18.8105 16.2317 18.3628 16.6794 17.8105 16.6794H16.8105C16.2583 16.6794 15.8105 16.2317 15.8105 15.6794ZM20.3105 12.6794H16.5105C15.9341 12.6794 15.5618 12.6802 15.2783 12.7034C15.0068 12.7256 14.906 12.7632 14.8564 12.7883C14.6685 12.8843 14.5154 13.0374 14.4194 13.2253C14.3943 13.2749 14.3567 13.3757 14.3345 13.6472C14.3113 13.9307 14.3105 14.303 14.3105 14.8794V26.4795C14.3105 27.0562 14.3113 27.4282 14.3345 27.7117C14.3567 27.9832 14.3943 28.084 14.4194 28.1335C14.5154 28.3215 14.6685 28.4746 14.8564 28.5706C14.906 28.5957 15.0068 28.6333 15.2783 28.6555C15.5618 28.6787 15.9341 28.6794 16.5105 28.6794H24.1106C24.6873 28.6794 25.0593 28.6787 25.3428 28.6555C25.4954 28.6431 25.594 28.6257 25.6599 28.6084C25.7114 28.595 25.7429 28.5815 25.7646 28.5706C25.877 28.5132 25.9766 28.4355 26.0591 28.3423C26.115 28.2793 26.1631 28.2092 26.2017 28.1335C26.2268 28.084 26.2644 27.9832 26.2866 27.7117C26.3098 27.4282 26.3105 27.0562 26.3105 26.4795V18.6794H22.9106C22.7224 18.6794 22.5371 18.6797 22.3674 18.6736C22.2996 18.6711 22.2344 18.6677 22.1724 18.6626C21.9438 18.6438 21.6738 18.5999 21.4026 18.4614C21.1746 18.3452 20.9724 18.187 20.8057 17.9968C20.6973 17.873 20.604 17.7356 20.5286 17.5874C20.3901 17.3159 20.3462 17.0461 20.3274 16.8176C20.3098 16.6008 20.3105 16.343 20.3105 16.0793V12.6794ZM24.8965 16.6794H22.9106C22.614 16.6794 22.4517 16.6787 22.3352 16.6692C22.3306 16.6687 22.3262 16.6685 22.322 16.668C22.3215 16.6638 22.3213 16.6594 22.3208 16.6548C22.3154 16.5901 22.3127 16.5115 22.3115 16.4036C22.3105 16.3169 22.3105 16.2114 22.3105 16.0793V14.0935L24.8965 16.6794Z" fill="url(#paint0_linear_3848_2120)"/>
<defs>
<linearGradient id="paint0_linear_3848_2120" x1="10.7446" y1="5.49715" x2="31.5754" y2="36.4457" gradientUnits="userSpaceOnUse">
<stop stop-color="#5E72E4"/>
<stop offset="1" stop-color="#825EE4"/>
</linearGradient>
</defs>
</svg>
