<svg width="19" height="19" viewBox="0 0 19 19" fill="none" xmlns="http://www.w3.org/2000/svg">
<path d="M10.626 14.0818H7.81348C7.3459 14.0818 6.96973 13.7057 6.96973 13.2381V7.33184H3.88652C3.26074 7.33184 2.94785 6.57598 3.39082 6.13301L8.73809 0.782227C9.00176 0.518555 9.43418 0.518555 9.69785 0.782227L15.0486 6.13301C15.4916 6.57598 15.1787 7.33184 14.5529 7.33184H11.4697V13.2381C11.4697 13.7057 11.0936 14.0818 10.626 14.0818ZM18.2197 13.8006V17.7381C18.2197 18.2057 17.8436 18.5818 17.376 18.5818H1.06348C0.595898 18.5818 0.219727 18.2057 0.219727 17.7381V13.8006C0.219727 13.333 0.595898 12.9568 1.06348 12.9568H5.84473V13.2381C5.84473 14.3244 6.72715 15.2068 7.81348 15.2068H10.626C11.7123 15.2068 12.5947 14.3244 12.5947 13.2381V12.9568H17.376C17.8436 12.9568 18.2197 13.333 18.2197 13.8006ZM13.8604 16.8943C13.8604 16.5076 13.5439 16.1912 13.1572 16.1912C12.7705 16.1912 12.4541 16.5076 12.4541 16.8943C12.4541 17.2811 12.7705 17.5975 13.1572 17.5975C13.5439 17.5975 13.8604 17.2811 13.8604 16.8943ZM16.1104 16.8943C16.1104 16.5076 15.7939 16.1912 15.4072 16.1912C15.0205 16.1912 14.7041 16.5076 14.7041 16.8943C14.7041 17.2811 15.0205 17.5975 15.4072 17.5975C15.7939 17.5975 16.1104 17.2811 16.1104 16.8943Z" fill="#b9c3d4"/>
</svg>
