<svg width="23" height="19" viewBox="0 0 23 19" fill="none" xmlns="http://www.w3.org/2000/svg">
<path d="M21.9422 13.9169C22.0356 13.4101 22.0356 12.8926 21.9422 12.3858L22.8694 11.8503C22.9773 11.7892 23.024 11.6634 22.988 11.5448C22.7472 10.7684 22.3339 10.064 21.7948 9.48173C21.7121 9.39187 21.5792 9.37031 21.4713 9.43141L20.544 9.96694C20.1523 9.63268 19.703 9.3739 19.2178 9.20139V8.13034C19.2178 8.00814 19.1315 7.90031 19.0129 7.87515C18.2115 7.69545 17.3956 7.70263 16.6336 7.87515C16.515 7.90031 16.4288 8.00814 16.4288 8.13034V9.20139C15.9436 9.3739 15.4943 9.63268 15.1025 9.96694L14.1752 9.43141C14.071 9.37031 13.9344 9.39187 13.8518 9.48173C13.3127 10.064 12.8993 10.7684 12.6585 11.5448C12.6226 11.6634 12.6729 11.7892 12.7771 11.8503L13.7044 12.3858C13.611 12.8926 13.611 13.4101 13.7044 13.9169L12.7771 14.4524C12.6693 14.5135 12.6226 14.6393 12.6585 14.7579C12.8993 15.5342 13.3127 16.2351 13.8518 16.8209C13.9344 16.9108 14.0674 16.9324 14.1752 16.8713L15.1025 16.3357C15.4943 16.67 15.9436 16.9288 16.4288 17.1013V18.1723C16.4288 18.2945 16.515 18.4024 16.6336 18.4275C17.4351 18.6072 18.251 18.6 19.0129 18.4275C19.1315 18.4024 19.2178 18.2945 19.2178 18.1723V17.1013C19.703 16.9288 20.1523 16.67 20.544 16.3357L21.4713 16.8713C21.5756 16.9324 21.7121 16.9108 21.7948 16.8209C22.3339 16.2387 22.7472 15.5342 22.988 14.7579C23.024 14.6393 22.9737 14.5135 22.8694 14.4524L21.9422 13.9169ZM17.8269 14.8945C16.8637 14.8945 16.0837 14.111 16.0837 13.1513C16.0837 12.1917 16.8672 11.4082 17.8269 11.4082C18.7865 11.4082 19.57 12.1917 19.57 13.1513C19.57 14.111 18.7901 14.8945 17.8269 14.8945ZM8.05085 9.70097C10.5919 9.70097 12.6513 7.64153 12.6513 5.10048C12.6513 2.55944 10.5919 0.5 8.05085 0.5C5.5098 0.5 3.45036 2.55944 3.45036 5.10048C3.45036 7.64153 5.5098 9.70097 8.05085 9.70097ZM15.2822 17.8417C15.1996 17.7985 15.1169 17.7482 15.0378 17.7015L14.7539 17.8668C14.5383 17.989 14.2939 18.0573 14.0495 18.0573C13.6577 18.0573 13.2803 17.892 13.0107 17.6045C12.353 16.8928 11.8498 16.0266 11.5659 15.1029C11.3682 14.4668 11.6342 13.7947 12.2093 13.4604L12.4932 13.2951C12.4896 13.2017 12.4896 13.1082 12.4932 13.0148L12.2093 12.8494C11.6342 12.5188 11.3682 11.8431 11.5659 11.2069C11.5983 11.1027 11.645 10.9985 11.6809 10.8942C11.5443 10.8834 11.4114 10.8511 11.2712 10.8511H10.671C9.87307 11.2177 8.98532 11.4262 8.05085 11.4262C7.11638 11.4262 6.23222 11.2177 5.43073 10.8511H4.83051C2.16367 10.8511 0 13.0148 0 15.6816V17.1768C0 18.1292 0.772738 18.9019 1.72518 18.9019H14.3765C14.7395 18.9019 15.0774 18.7869 15.3541 18.5964C15.311 18.4599 15.2822 18.3197 15.2822 18.1723V17.8417Z" fill="#b9c3d4"/>
</svg>
