<svg width="25" height="25" viewBox="0 0 25 25" fill="none" xmlns="http://www.w3.org/2000/svg">
<g clip-path="url(#clip0_194_1201)">
<path d="M0.628174 12.0815C0.628174 8.89894 1.89246 5.8467 4.14289 3.59626C6.39333 1.34583 9.44558 0.081543 12.6282 0.081543C15.8108 0.081543 18.863 1.34583 21.1135 3.59626C23.3639 5.8467 24.6282 8.89894 24.6282 12.0815C24.6282 15.2641 23.3639 18.3164 21.1135 20.5668C18.863 22.8173 15.8108 24.0815 12.6282 24.0815C9.44558 24.0815 6.39333 22.8173 4.14289 20.5668C1.89246 18.3164 0.628174 15.2641 0.628174 12.0815ZM15.6282 16.5815C15.6282 15.3206 14.8547 14.2425 13.7532 13.8019V4.20654C13.7532 3.58311 13.2516 3.08154 12.6282 3.08154C12.0047 3.08154 11.5032 3.58311 11.5032 4.20654V13.8019C10.4016 14.2472 9.62817 15.3253 9.62817 16.5815C9.62817 18.2362 10.9735 19.5815 12.6282 19.5815C14.2829 19.5815 15.6282 18.2362 15.6282 16.5815ZM7.37817 8.33154C7.776 8.33154 8.15753 8.17351 8.43883 7.8922C8.72014 7.6109 8.87817 7.22937 8.87817 6.83154C8.87817 6.43372 8.72014 6.05219 8.43883 5.77088C8.15753 5.48958 7.776 5.33154 7.37817 5.33154C6.98035 5.33154 6.59882 5.48958 6.31751 5.77088C6.03621 6.05219 5.87817 6.43372 5.87817 6.83154C5.87817 7.22937 6.03621 7.6109 6.31751 7.8922C6.59882 8.17351 6.98035 8.33154 7.37817 8.33154ZM6.62817 12.0815C6.62817 11.6837 6.47014 11.3022 6.18883 11.0209C5.90753 10.7396 5.526 10.5815 5.12817 10.5815C4.73035 10.5815 4.34882 10.7396 4.06751 11.0209C3.78621 11.3022 3.62817 11.6837 3.62817 12.0815C3.62817 12.4794 3.78621 12.8609 4.06751 13.1422C4.34882 13.4235 4.73035 13.5815 5.12817 13.5815C5.526 13.5815 5.90753 13.4235 6.18883 13.1422C6.47014 12.8609 6.62817 12.4794 6.62817 12.0815ZM20.1282 13.5815C20.526 13.5815 20.9075 13.4235 21.1888 13.1422C21.4701 12.8609 21.6282 12.4794 21.6282 12.0815C21.6282 11.6837 21.4701 11.3022 21.1888 11.0209C20.9075 10.7396 20.526 10.5815 20.1282 10.5815C19.7303 10.5815 19.3488 10.7396 19.0675 11.0209C18.7862 11.3022 18.6282 11.6837 18.6282 12.0815C18.6282 12.4794 18.7862 12.8609 19.0675 13.1422C19.3488 13.4235 19.7303 13.5815 20.1282 13.5815ZM19.3782 6.83154C19.3782 6.43372 19.2201 6.05219 18.9388 5.77088C18.6575 5.48958 18.276 5.33154 17.8782 5.33154C17.4803 5.33154 17.0988 5.48958 16.8175 5.77088C16.5362 6.05219 16.3782 6.43372 16.3782 6.83154C16.3782 7.22937 16.5362 7.6109 16.8175 7.8922C17.0988 8.17351 17.4803 8.33154 17.8782 8.33154C18.276 8.33154 18.6575 8.17351 18.9388 7.8922C19.2201 7.6109 19.3782 7.22937 19.3782 6.83154Z" fill="#b9c3d4"/>
</g>
<defs>
<clipPath id="clip0_194_1201">
<rect width="24" height="24" fill="white" transform="translate(0.628174 0.081543)"/>
</clipPath>
</defs>
</svg>
