<svg width="22" height="22" viewBox="0 0 22 22" fill="none" xmlns="http://www.w3.org/2000/svg">
<path d="M12.7688 16.3299H9.48755C8.94204 16.3299 8.50317 15.8911 8.50317 15.3456V8.45493H4.9061C4.17603 8.45493 3.81099 7.5731 4.32778 7.0563L10.5663 0.813721C10.8739 0.506104 11.3784 0.506104 11.686 0.813721L17.9286 7.0563C18.4454 7.5731 18.0803 8.45493 17.3502 8.45493H13.7532V15.3456C13.7532 15.8911 13.3143 16.3299 12.7688 16.3299ZM21.6282 16.0018V20.5956C21.6282 21.1411 21.1893 21.5799 20.6438 21.5799H1.61255C1.06704 21.5799 0.628174 21.1411 0.628174 20.5956V16.0018C0.628174 15.4563 1.06704 15.0174 1.61255 15.0174H7.19067V15.3456C7.19067 16.6129 8.22017 17.6424 9.48755 17.6424H12.7688C14.0362 17.6424 15.0657 16.6129 15.0657 15.3456V15.0174H20.6438C21.1893 15.0174 21.6282 15.4563 21.6282 16.0018ZM16.5422 19.6112C16.5422 19.16 16.1731 18.7909 15.7219 18.7909C15.2708 18.7909 14.9016 19.16 14.9016 19.6112C14.9016 20.0624 15.2708 20.4315 15.7219 20.4315C16.1731 20.4315 16.5422 20.0624 16.5422 19.6112ZM19.1672 19.6112C19.1672 19.16 18.7981 18.7909 18.3469 18.7909C17.8958 18.7909 17.5266 19.16 17.5266 19.6112C17.5266 20.0624 17.8958 20.4315 18.3469 20.4315C18.7981 20.4315 19.1672 20.0624 19.1672 19.6112Z" fill="#b9c3d4"/>
</svg>
