<svg width="24" height="22" viewBox="0 0 24 22" fill="none" xmlns="http://www.w3.org/2000/svg">
<path d="M22.4782 4.18145H11.5939C11.2091 4.18145 10.8514 3.99129 10.6386 3.66983L9.02227 1.24306C8.80947 0.921603 8.4518 0.731445 8.06695 0.731445H1.77817C1.14432 0.731445 0.628174 1.24759 0.628174 1.88145V6.25054C0.628174 6.37731 0.732308 6.48145 0.859079 6.48145H23.3973C23.524 6.48145 23.6282 6.37731 23.6282 6.25054V5.33145C23.6282 4.69759 23.112 4.18145 22.4782 4.18145Z" fill="#b9c3d4"/>
<path d="M23.3973 8.78125H0.859079C0.732308 8.78125 0.628174 8.88538 0.628174 9.01216V20.2813C0.628174 20.9151 1.14432 21.4313 1.77817 21.4313H22.4782C23.112 21.4313 23.6282 20.9151 23.6282 20.2813V9.01216C23.6282 8.88538 23.524 8.78125 23.3973 8.78125ZM15.474 16.297L12.3817 19.0271C12.2414 19.1675 12.015 19.1675 11.8746 19.0271L8.78231 16.297C8.55593 16.0706 8.71439 15.6813 9.03585 15.6813H10.9782V11.5431C10.9782 11.2895 11.1819 11.0813 11.44 11.0813H12.8209C13.0744 11.0813 13.2827 11.285 13.2827 11.5431V15.6813H15.225C15.5374 15.6813 15.7004 16.0706 15.474 16.297Z" fill="#b9c3d4"/>
</svg>
