<svg width="24" height="26" viewBox="0 0 24 26" fill="none" xmlns="http://www.w3.org/2000/svg">
<path d="M23.1448 15.9917L21.0648 14.7906C21.2747 13.6578 21.2747 12.4957 21.0648 11.3628L23.1448 10.1617C23.3841 10.0249 23.4915 9.74175 23.4134 9.47807C22.8714 7.73979 21.9485 6.16753 20.7425 4.85893C20.5569 4.65874 20.2542 4.60991 20.0198 4.74663L17.9398 5.9478C17.0657 5.19585 16.0599 4.61479 14.971 4.23393V1.83647C14.971 1.56303 14.7806 1.32378 14.512 1.26518C12.72 0.864792 10.8841 0.884323 9.17999 1.26518C8.91143 1.32378 8.721 1.56303 8.721 1.83647V4.23882C7.63702 4.62456 6.63116 5.20561 5.75225 5.95268L3.67706 4.75151C3.4378 4.61479 3.13995 4.65874 2.9544 4.86382C1.74835 6.16753 0.825494 7.73979 0.283502 9.48296C0.200494 9.74663 0.312799 10.0298 0.552057 10.1665L2.63213 11.3677C2.42217 12.5005 2.42217 13.6626 2.63213 14.7955L0.552057 15.9966C0.312799 16.1333 0.205377 16.4165 0.283502 16.6802C0.825494 18.4185 1.74835 19.9908 2.9544 21.2994C3.13995 21.4996 3.44268 21.5484 3.67706 21.4117L5.75713 20.2105C6.63116 20.9624 7.63702 21.5435 8.72589 21.9244V24.3267C8.72589 24.6001 8.91631 24.8394 9.18487 24.898C10.9769 25.2984 12.8128 25.2789 14.5169 24.898C14.7855 24.8394 14.9759 24.6001 14.9759 24.3267V21.9244C16.0599 21.5386 17.0657 20.9576 17.9446 20.2105L20.0247 21.4117C20.264 21.5484 20.5618 21.5044 20.7474 21.2994C21.9534 19.9957 22.8763 18.4234 23.4183 16.6802C23.4915 16.4117 23.3841 16.1285 23.1448 15.9917ZM11.846 16.983C9.69268 16.983 7.93975 15.23 7.93975 13.0767C7.93975 10.9234 9.69268 9.17046 11.846 9.17046C13.9993 9.17046 15.7523 10.9234 15.7523 13.0767C15.7523 15.23 13.9993 16.983 11.846 16.983Z" fill="#b9c3d4"/>
</svg>
