<svg width="19" height="19" viewBox="0 0 19 19" fill="none" xmlns="http://www.w3.org/2000/svg">
<path d="M9.11 0.0561523C4.07746 0.0561523 0 4.13361 0 9.16615C0 14.1987 4.07746 18.2762 9.11 18.2762C14.1425 18.2762 18.22 14.1987 18.22 9.16615C18.22 4.13361 14.1425 0.0561523 9.11 0.0561523ZM11.2075 12.9167L7.96758 10.562C7.8537 10.4776 7.78758 10.3453 7.78758 10.2057V4.02341C7.78758 3.78097 7.98594 3.5826 8.22839 3.5826H9.99161C10.2341 3.5826 10.4324 3.78097 10.4324 4.02341V9.08166L12.765 10.7788C12.9634 10.922 13.0038 11.1975 12.8605 11.3959L11.8246 12.8212C11.6814 13.0159 11.4059 13.0599 11.2075 12.9167Z" fill="#b9c3d4"/>
</svg>
