<svg width="20" height="24" viewBox="0 0 20 24" fill="none" xmlns="http://www.w3.org/2000/svg">
<path d="M19.6141 8.0105C19.6071 8.0105 19.6071 8.00346 19.6071 8.00346C19.593 7.91198 19.5578 7.82754 19.5156 7.74309C19.5085 7.72902 19.5015 7.70791 19.4874 7.68679C19.4382 7.60939 19.3889 7.53198 19.3185 7.46161L12.9852 1.12828C12.9219 1.06494 12.8445 1.01568 12.7671 0.966424C12.746 0.95235 12.7248 0.945313 12.7037 0.931239C12.6263 0.896054 12.5419 0.860869 12.4504 0.839758C12.4434 0.839758 12.4434 0.839758 12.4363 0.839758C12.373 0.832721 12.3097 0.825684 12.2393 0.825684H3.09114C1.73299 0.825684 0.628174 1.9305 0.628174 3.28865V20.8742C0.628174 22.2324 1.73299 23.3372 3.09114 23.3372H17.1652C18.5234 23.3372 19.6282 22.2324 19.6282 20.8742V8.21457C19.6282 8.1442 19.6211 8.08087 19.6141 8.0105ZM15.3356 15.6316C15.3285 15.6386 15.3285 15.6457 15.3285 15.6457C15.2722 15.7794 15.1948 15.899 15.0963 15.9905L12.9852 18.1016C12.7811 18.3127 12.5137 18.4112 12.2393 18.4112C11.9719 18.4112 11.7045 18.3127 11.4934 18.1016C11.0852 17.6935 11.0852 17.0249 11.4934 16.6098L11.803 16.3001H5.90595C5.32891 16.3001 4.8504 15.8286 4.8504 15.2446C4.8504 14.6675 5.32891 14.189 5.90595 14.189H11.803L11.4934 13.8794C11.0852 13.4712 11.0852 12.8027 11.4934 12.3875C11.9085 11.9794 12.5771 11.9794 12.9852 12.3875L15.0963 14.4986C15.1948 14.5972 15.2722 14.7168 15.3285 14.8435C15.3285 14.8505 15.3285 14.8575 15.3356 14.8646C15.3778 14.9842 15.406 15.1109 15.406 15.2446C15.406 15.3853 15.3778 15.512 15.3356 15.6316ZM13.6467 7.15902C13.4567 7.15902 13.2948 6.99717 13.2948 6.80717V4.42865L16.0252 7.15902H13.6467Z" fill="#b9c3d4"/>
</svg>
