<svg width="17" height="20" viewBox="0 0 17 20" fill="none" xmlns="http://www.w3.org/2000/svg">
<path d="M8.44 9.64572C11.1039 9.64572 13.2629 7.48673 13.2629 4.82286C13.2629 2.15898 11.1039 0 8.44 0C5.77612 0 3.61714 2.15898 3.61714 4.82286C3.61714 7.48673 5.77612 9.64572 8.44 9.64572ZM11.816 10.8514H11.1868C10.3503 11.2358 9.41964 11.4543 8.44 11.4543C7.46036 11.4543 6.53346 11.2358 5.69323 10.8514H5.064C2.26825 10.8514 0 13.1197 0 15.9154V17.4829C0 18.4813 0.810089 19.2914 1.80857 19.2914H15.0714C16.0699 19.2914 16.88 18.4813 16.88 17.4829V15.9154C16.88 13.1197 14.6117 10.8514 11.816 10.8514Z" fill="#b9c3d4"/>
</svg>
