<svg width="20" height="26" viewBox="0 0 20 26" fill="none" xmlns="http://www.w3.org/2000/svg">
<path d="M16.8472 3.70654H12.9409C12.9409 1.98291 11.5396 0.581543 9.81592 0.581543C8.09229 0.581543 6.69092 1.98291 6.69092 3.70654H2.78467C1.49072 3.70654 0.440918 4.75635 0.440918 6.05029V23.2378C0.440918 24.5317 1.49072 25.5815 2.78467 25.5815H16.8472C18.1411 25.5815 19.1909 24.5317 19.1909 23.2378V6.05029C19.1909 4.75635 18.1411 3.70654 16.8472 3.70654ZM5.12842 21.2847C4.479 21.2847 3.95654 20.7622 3.95654 20.1128C3.95654 19.4634 4.479 18.9409 5.12842 18.9409C5.77783 18.9409 6.30029 19.4634 6.30029 20.1128C6.30029 20.7622 5.77783 21.2847 5.12842 21.2847ZM5.12842 16.5972C4.479 16.5972 3.95654 16.0747 3.95654 15.4253C3.95654 14.7759 4.479 14.2534 5.12842 14.2534C5.77783 14.2534 6.30029 14.7759 6.30029 15.4253C6.30029 16.0747 5.77783 16.5972 5.12842 16.5972ZM5.12842 11.9097C4.479 11.9097 3.95654 11.3872 3.95654 10.7378C3.95654 10.0884 4.479 9.56592 5.12842 9.56592C5.77783 9.56592 6.30029 10.0884 6.30029 10.7378C6.30029 11.3872 5.77783 11.9097 5.12842 11.9097ZM9.81592 2.53467C10.4653 2.53467 10.9878 3.05713 10.9878 3.70654C10.9878 4.35596 10.4653 4.87842 9.81592 4.87842C9.1665 4.87842 8.64404 4.35596 8.64404 3.70654C8.64404 3.05713 9.1665 2.53467 9.81592 2.53467ZM16.0659 20.5034C16.0659 20.7183 15.8901 20.894 15.6753 20.894H8.64404C8.4292 20.894 8.25342 20.7183 8.25342 20.5034V19.7222C8.25342 19.5073 8.4292 19.3315 8.64404 19.3315H15.6753C15.8901 19.3315 16.0659 19.5073 16.0659 19.7222V20.5034ZM16.0659 15.8159C16.0659 16.0308 15.8901 16.2065 15.6753 16.2065H8.64404C8.4292 16.2065 8.25342 16.0308 8.25342 15.8159V15.0347C8.25342 14.8198 8.4292 14.644 8.64404 14.644H15.6753C15.8901 14.644 16.0659 14.8198 16.0659 15.0347V15.8159ZM16.0659 11.1284C16.0659 11.3433 15.8901 11.519 15.6753 11.519H8.64404C8.4292 11.519 8.25342 11.3433 8.25342 11.1284V10.3472C8.25342 10.1323 8.4292 9.95654 8.64404 9.95654H15.6753C15.8901 9.95654 16.0659 10.1323 16.0659 10.3472V11.1284Z" fill="#b9c3d4"/>
</svg>
