<svg width="828" height="787" viewBox="0 0 828 787" fill="none" xmlns="http://www.w3.org/2000/svg">
<g clip-path="url(#clip0_743_5292)">
<path d="M633.936 655.357C623.335 646.328 616.897 632.064 618.585 618.178C620.274 604.293 630.733 591.527 644.299 588.579C657.866 585.63 673.331 593.792 677.451 607.151C679.719 581.396 682.332 554.562 695.916 532.628C708.217 512.769 729.521 498.558 752.61 496.016C775.698 493.474 800.008 503.075 814.408 521.445C828.807 539.815 832.333 566.521 822.248 587.612C814.818 603.148 801.131 614.71 786.79 624.117C740.448 654.257 684.868 666.514 630.275 658.632L633.936 655.357Z" fill="#4965CC"/>
<path opacity="0.1" d="M791.576 503.608C772.525 519.249 755.047 536.744 739.396 555.837C714.903 585.616 695.082 619.004 680.625 654.838C679.567 657.452 683.778 658.59 684.825 656.005C708.478 597.768 746.24 546.439 794.655 506.712C796.829 504.927 793.732 501.838 791.576 503.608Z" fill="white"/>
<path d="M266.547 652.904C281.107 640.502 289.95 620.911 287.631 601.839C285.312 582.767 270.947 565.234 252.313 561.184C233.679 557.134 212.438 568.345 206.779 586.693C203.664 551.318 200.075 514.461 181.417 484.336C164.522 457.058 135.261 437.54 103.549 434.049C71.8362 430.557 38.447 443.745 18.6691 468.976C-1.10885 494.207 -5.95139 530.888 7.90055 559.855C18.1048 581.194 36.9046 597.075 56.6021 609.995C119.444 651.215 197.399 668.405 271.575 657.402" fill="#4965CC"/>
<path opacity="0.1" d="M50.029 444.476C76.1958 465.96 100.201 489.988 121.698 516.213C143.197 542.412 162.126 570.65 178.217 600.532C187.211 617.295 195.29 634.54 202.419 652.19C203.873 655.781 198.089 657.344 196.652 653.793C184.024 622.675 168.402 592.88 150.009 564.835C131.705 536.891 110.755 510.802 87.453 486.936C74.2735 473.444 60.368 460.692 45.7996 448.739C42.8134 446.288 47.0676 442.045 50.029 444.476L50.029 444.476Z" fill="white"/>
<path d="M594.352 659.908H246.973V300.627C246.973 224.188 308.666 162 384.497 162H456.828C532.659 162 594.352 224.188 594.352 300.627V659.908Z" fill="#4965CC"/>
<path d="M573.25 338.75L571 352C579.583 352 596.45 351.75 595.25 350.75C594.05 349.75 593.083 342.333 592.75 338.75H573.25Z" fill="#FFB8B8"/>
<path d="M522.021 659.908H246.972V300.627C246.896 271.338 256.097 242.788 273.236 219.135C273.867 218.267 274.498 217.41 275.147 216.563C283.437 205.603 293.302 195.951 304.417 187.926C305.045 187.465 305.675 187.013 306.315 186.56C315.615 180.072 325.676 174.769 336.268 170.77C336.897 170.53 337.537 170.289 338.177 170.058C347.757 166.612 357.687 164.252 367.784 163.02C368.41 162.934 369.053 162.867 369.695 162.799C379.535 161.739 389.459 161.739 399.299 162.799C399.94 162.867 400.583 162.934 401.216 163.021C411.311 164.253 421.238 166.613 430.815 170.058C431.456 170.289 432.096 170.53 432.727 170.77C443.188 174.719 453.13 179.943 462.332 186.327C462.971 186.77 463.611 187.222 464.241 187.675C470.471 192.158 476.323 197.152 481.737 202.606C486.079 206.982 490.125 211.645 493.847 216.566C494.495 217.41 495.125 218.267 495.756 219.134C512.895 242.787 522.096 271.337 522.021 300.627V659.908Z" fill="#2C4499"/>
<path d="M499.655 499.215C508.065 499.215 514.883 492.343 514.883 483.865C514.883 475.388 508.065 468.515 499.655 468.515C491.245 468.515 484.428 475.388 484.428 483.865C484.428 492.343 491.245 499.215 499.655 499.215Z" fill="#304CB2"/>
<path d="M565.894 649.146H554.226L548.675 603.78L565.896 603.781L565.894 649.146Z" fill="#FFB8B8"/>
<path d="M545.891 645.786H568.394V660.068H531.723C531.723 658.192 532.09 656.335 532.802 654.602C533.514 652.869 534.557 651.295 535.873 649.969C537.189 648.643 538.75 647.591 540.469 646.873C542.188 646.155 544.031 645.786 545.891 645.786Z" fill="#2F2E41"/>
<path d="M623.95 649.146H612.281L606.73 603.78L623.951 603.781L623.95 649.146Z" fill="#FFB8B8"/>
<path d="M603.947 645.786H626.449V660.068H589.778C589.778 658.192 590.145 656.335 590.857 654.602C591.569 652.869 592.612 651.295 593.928 649.969C595.244 648.643 596.806 647.591 598.525 646.873C600.244 646.155 602.086 645.786 603.947 645.786Z" fill="#2F2E41"/>
<path d="M507.362 486.906C506.522 485.659 505.964 484.242 505.727 482.755C505.49 481.267 505.579 479.745 505.988 478.296C506.397 476.847 507.117 475.506 508.096 474.368C509.075 473.229 510.29 472.321 511.654 471.707L551.318 361.508L570.836 372.245L525.548 477.554C526.419 479.934 526.394 482.554 525.478 484.916C524.561 487.279 522.817 489.22 520.575 490.373C518.334 491.525 515.75 491.809 513.315 491.17C510.88 490.531 508.761 489.014 507.362 486.906Z" fill="#FFB8B8"/>
<path d="M617.989 507.613C616.692 506.863 615.574 505.836 614.714 504.604C613.854 503.372 613.272 501.965 613.009 500.482C612.747 498.999 612.81 497.475 613.195 496.019C613.579 494.563 614.276 493.21 615.236 492.055L602.948 375.484L625.159 376.507L630.266 491.17C632.084 492.924 633.201 495.289 633.405 497.817C633.609 500.345 632.886 502.861 631.373 504.888C629.859 506.915 627.661 508.312 625.194 508.814C622.728 509.316 620.164 508.889 617.989 507.613Z" fill="#FFB8B8"/>
<path d="M582.556 341.097C595.466 341.097 605.931 330.547 605.931 317.534C605.931 304.52 595.466 293.971 582.556 293.971C569.646 293.971 559.181 304.52 559.181 317.534C559.181 330.547 569.646 341.097 582.556 341.097Z" fill="#FFB8B8"/>
<path d="M617.84 481.101H547.368L547.452 480.548C547.579 479.722 560.012 397.622 550.842 370.763C549.922 368.123 550.003 365.234 551.069 362.651C552.136 360.068 554.112 357.974 556.619 356.772H556.619C569.726 350.55 594.885 342.889 616.121 361.482C619.246 364.263 621.686 367.739 623.248 371.634C624.811 375.53 625.453 379.738 625.123 383.927L617.84 481.101Z" fill="#608ACA"/>
<path d="M560.903 409.755L529.175 403.267L544.047 367.742C544.937 364.301 547.145 361.357 550.185 359.554C553.226 357.752 556.852 357.239 560.268 358.128C563.683 359.017 566.61 361.235 568.405 364.295C570.2 367.356 570.718 371.01 569.844 374.455L560.903 409.755Z" fill="#608ACA"/>
<path d="M601.538 421.802L599.63 377.728C598.184 369.443 602.889 361.611 610.125 360.33C617.364 359.055 624.431 364.801 625.884 373.147L633.054 414.33L601.538 421.802Z" fill="#608ACA"/>
<path d="M615.495 475.824C626.835 519.357 628.072 574.705 625.012 635.078L609.785 633.159L582.185 518.036L566.957 635.078L549.826 634.119C544.708 570.773 539.725 516.391 547.923 480.621L615.495 475.824Z" fill="#2F2E41"/>
<path d="M597.958 335.744C593.597 340.426 585.498 337.913 584.93 331.516C584.886 331.019 584.889 330.519 584.94 330.023C585.233 327.19 586.857 324.617 586.468 321.626C586.38 320.881 586.105 320.171 585.669 319.564C582.194 314.873 574.036 321.662 570.757 317.416C568.746 314.812 571.11 310.713 569.567 307.802C567.53 303.962 561.497 305.856 557.714 303.753C553.505 301.413 553.756 294.903 556.527 290.943C559.906 286.114 565.831 283.537 571.682 283.166C577.533 282.794 583.343 284.389 588.806 286.534C595.012 288.972 601.166 292.342 604.985 297.843C609.63 304.533 610.077 313.526 607.754 321.349C606.341 326.107 601.519 331.92 597.958 335.744Z" fill="#2F2E41"/>
<path d="M799.431 660.525H96.7783C96.4784 660.524 96.191 660.403 95.9792 660.189C95.7674 659.975 95.6484 659.685 95.6484 659.383C95.6484 659.08 95.7674 658.79 95.9792 658.576C96.191 658.362 96.4784 658.241 96.7783 658.24H799.431C799.731 658.241 800.018 658.362 800.23 658.576C800.442 658.79 800.561 659.08 800.561 659.383C800.561 659.685 800.442 659.975 800.23 660.189C800.018 660.403 799.731 660.524 799.431 660.525Z" fill="#3F3D56"/>
<path d="M446.359 555.817H322.634C321.005 555.826 319.439 555.183 318.279 554.029C317.119 552.876 316.461 551.305 316.448 549.663V271.286C316.461 269.643 317.119 268.073 318.279 266.919C319.439 265.765 321.005 265.122 322.634 265.131H446.359C447.988 265.122 449.554 265.765 450.714 266.919C451.874 268.073 452.532 269.643 452.545 271.286V549.663C452.532 551.305 451.874 552.876 450.714 554.029C449.554 555.183 447.988 555.826 446.359 555.817Z" fill="white"/>
<path d="M452.545 355.205H316.448V357.124H452.545V355.205Z" fill="#CCCCCC"/>
<path d="M453.021 464.678H316.924V466.597H453.021V464.678Z" fill="#CCCCCC"/>
<path d="M361.179 265.131H359.276V556.776H361.179V265.131Z" fill="#CCCCCC"/>
<path d="M408.765 265.131H406.862V556.776H408.765V265.131Z" fill="#CCCCCC"/>
</g>
<path opacity="0.5" fill-rule="evenodd" clip-rule="evenodd" d="M709.375 786.508H682.928C682.928 775.148 673.718 765.939 662.358 765.939C650.997 765.939 641.788 775.148 641.788 786.508H615.341C615.341 760.542 636.391 739.492 662.358 739.492C688.324 739.492 709.375 760.542 709.375 786.508Z" fill="white"/>
<path opacity="0.5" d="M102.652 142.348C100.731 79.4914 99.1607 77.9309 36.3037 76.0001C99.1607 74.0793 100.721 72.5089 102.652 9.65186C104.573 72.5089 106.143 74.0694 169 76.0001C106.143 77.9309 104.583 79.4721 102.652 142.348Z" fill="white"/>
<path opacity="0.5" d="M707.113 5.3399C708.903 5.3399 709.668 5.84933 710.825 6.62046C712.257 7.57519 714.039 8.76358 717.384 8.76358C720.729 8.76358 722.511 7.5753 723.943 6.62046C725.1 5.84933 725.864 5.34012 727.654 5.34012C729.444 5.34012 730.208 5.84955 731.365 6.62046C732.797 7.57541 734.579 8.76358 737.925 8.76358C741.27 8.76358 743.052 7.5753 744.484 6.62046C745.641 5.84944 746.405 5.34012 748.195 5.34012C749.986 5.34012 750.75 5.84955 751.907 6.62068C753.339 7.57541 755.122 8.7638 758.467 8.7638C761.812 8.7638 763.595 7.57552 765.027 6.62068C766.184 5.84955 766.948 5.34012 768.738 5.34012C770.157 5.34012 771.306 4.19045 771.306 2.77243C771.306 1.35431 770.157 0.204538 768.738 0.204538C765.393 0.204538 763.61 1.39282 762.178 2.34765C761.021 3.11878 760.257 3.628 758.467 3.628C756.677 3.628 755.912 3.11857 754.756 2.34743C753.323 1.39271 751.541 0.20432 748.195 0.20432C744.85 0.20432 743.068 1.3926 741.635 2.34743C740.479 3.11857 739.715 3.628 737.925 3.628C736.134 3.628 735.37 3.11857 734.213 2.34743C732.781 1.39271 730.998 0.20432 727.654 0.20432C724.308 0.20432 722.526 1.3926 721.094 2.34743C719.938 3.11857 719.173 3.62778 717.384 3.62778C715.594 3.62778 714.83 3.11835 713.673 2.34743C712.241 1.39249 710.459 0.204102 707.113 0.204102C705.695 0.204429 704.545 1.35409 704.545 2.77222C704.545 4.19034 705.695 5.3399 707.113 5.3399ZM768.739 17.3226C765.393 17.3226 763.611 18.5109 762.178 19.4657C761.022 20.2369 760.257 20.7461 758.467 20.7461C756.677 20.7461 755.913 20.2366 754.756 19.4655C753.324 18.5108 751.541 17.3224 748.196 17.3224C744.85 17.3224 743.068 18.5107 741.636 19.4655C740.479 20.2365 739.715 20.7459 737.925 20.7459C736.134 20.7459 735.37 20.2364 734.213 19.4653C732.781 18.5106 730.999 17.3222 727.654 17.3222C724.309 17.3222 722.526 18.5105 721.094 19.4653C719.938 20.2364 719.174 20.7456 717.384 20.7456C715.594 20.7456 714.83 20.2362 713.673 19.4653C712.241 18.5106 710.459 17.3222 707.113 17.3222C705.695 17.3226 704.545 18.4723 704.545 19.8903C704.545 21.3084 705.695 22.458 707.113 22.458C708.903 22.458 709.668 22.9674 710.825 23.7385C712.257 24.6933 714.039 25.8817 717.384 25.8817C720.729 25.8817 722.511 24.6934 723.943 23.7385C725.1 22.9674 725.864 22.4582 727.654 22.4582C729.444 22.4582 730.208 22.9676 731.365 23.7385C732.797 24.6935 734.579 25.8817 737.925 25.8817C741.27 25.8817 743.052 24.6934 744.484 23.7385C745.641 22.9674 746.405 22.458 748.195 22.458C749.986 22.458 750.75 22.9674 751.907 23.7385C753.339 24.6933 755.122 25.8817 758.467 25.8817C761.812 25.8817 763.595 24.6935 765.027 23.7385C766.184 22.9674 766.948 22.458 768.738 22.458C770.157 22.458 771.306 21.3083 771.306 19.8903C771.306 18.4723 770.157 17.3226 768.739 17.3226ZM768.739 34.4408C765.393 34.4408 763.611 35.6291 762.178 36.5839C761.022 37.3551 760.257 37.8645 758.467 37.8645C756.677 37.8645 755.913 37.3551 754.756 36.5839C753.324 35.6292 751.541 34.4408 748.196 34.4408C744.85 34.4408 743.068 35.6291 741.636 36.5839C740.479 37.3549 739.715 37.8645 737.925 37.8645C736.134 37.8645 735.37 37.3551 734.213 36.5839C732.781 35.6292 730.999 34.4408 727.654 34.4408C724.309 34.4408 722.526 35.6291 721.094 36.5839C719.938 37.3551 719.174 37.8645 717.384 37.8645C715.594 37.8645 714.83 37.3551 713.673 36.5839C712.241 35.6292 710.459 34.4408 707.113 34.4408C705.695 34.4408 704.545 35.5905 704.545 37.0085C704.545 38.4266 705.695 39.5764 707.113 39.5764C708.903 39.5764 709.668 40.0858 710.825 40.857C712.257 41.8117 714.039 43.0001 717.384 43.0001C720.729 43.0001 722.511 41.8118 723.943 40.857C725.1 40.0858 725.864 39.5766 727.654 39.5766C729.444 39.5766 730.208 40.086 731.365 40.857C732.797 41.8117 734.579 43.0001 737.925 43.0001C741.27 43.0001 743.052 41.8118 744.484 40.857C745.641 40.0858 746.405 39.5764 748.195 39.5764C749.986 39.5764 750.75 40.0858 751.907 40.857C753.339 41.8117 755.122 42.9999 758.467 42.9999C761.812 42.9999 763.595 41.8117 765.027 40.857C766.184 40.0858 766.948 39.5764 768.738 39.5764C770.157 39.5764 771.306 38.4267 771.306 37.0085C771.306 35.5905 770.157 34.4408 768.739 34.4408Z" fill="white"/>
<defs>
<clipPath id="clip0_743_5292">
<rect width="828" height="499" fill="white" transform="translate(0 162)"/>
</clipPath>
</defs>
</svg>
