<svg width="19" height="20" viewBox="0 0 19 20" fill="none" xmlns="http://www.w3.org/2000/svg">
<rect width="19" height="20" rx="3" fill="#B9C3D4"/>
<path d="M11.1541 10.7727L7.3264 14.6C7.06273 14.8682 6.71269 15 6.36265 15C6.01262 15 5.66258 14.8682 5.39891 14.6C4.86703 14.0682 4.86703 13.2045 5.39891 12.6727L9.22662 8.84545C9.1357 8.56364 9.09024 8.26364 9.09024 7.95455C9.09024 6.32273 10.4131 5 12.0451 5C12.4088 5 12.7543 5.06364 13.0725 5.18636L11.1632 7.09545L12.9043 8.83636L14.8136 6.92727C14.9364 7.24545 15 7.59091 15 7.95455C15 9.58636 13.6771 10.9091 12.0451 10.9091C11.736 10.9091 11.436 10.8636 11.1541 10.7727Z" fill="white"/>
</svg>
