<svg width="41" height="41" viewBox="0 0 41 41" fill="none" xmlns="http://www.w3.org/2000/svg">
<path fill-rule="evenodd" clip-rule="evenodd" d="M20.3105 40.6794C31.3562 40.6794 40.3105 31.7251 40.3105 20.6794C40.3105 9.63379 31.3562 0.679443 20.3105 0.679443C9.26489 0.679443 0.310547 9.63379 0.310547 20.6794C0.310547 31.7251 9.26489 40.6794 20.3105 40.6794ZM13.873 11.1169C13.873 10.5647 13.4253 10.1169 12.873 10.1169C12.3208 10.1169 11.873 10.5647 11.873 11.1169V16.4294C11.873 16.9817 12.3208 17.4294 12.873 17.4294H12.928H12.9648H18.1855C18.7378 17.4294 19.1855 16.9817 19.1855 16.4294C19.1855 15.8772 18.7378 15.4294 18.1855 15.4294H14.9512C15.6541 14.7114 16.4988 14.1375 17.4387 13.7478C18.9644 13.1152 20.6562 13.0042 22.2515 13.4316C23.8467 13.8591 25.2563 14.801 26.2615 16.1116C27.2666 17.4219 27.8113 19.0276 27.8105 20.679C27.8103 21.2314 28.2578 21.6792 28.8101 21.6794C29.3625 21.6797 29.8103 21.2322 29.8105 20.6799C29.8113 18.5879 29.1216 16.5542 27.8484 14.8943C26.5752 13.2344 24.7898 12.0413 22.769 11.4998C20.7483 10.9585 18.6055 11.0991 16.6729 11.9001C15.6348 12.3306 14.6885 12.9385 13.873 13.6897V11.1169ZM12.8105 20.6799C12.8108 20.1274 12.3633 19.6797 11.811 19.6794C11.2585 19.6792 10.8108 20.1267 10.8105 20.679C10.8098 22.771 11.4995 24.8047 12.7727 26.4646C14.0459 28.1245 15.8313 29.3176 17.8521 29.8591C19.8728 30.4004 22.0156 30.2598 23.9482 29.4587C24.9863 29.0283 25.9326 28.4204 26.748 27.6689V30.2419C26.748 30.7942 27.1958 31.2419 27.748 31.2419C28.3003 31.2419 28.748 30.7942 28.748 30.2419V24.9294C28.748 24.3772 28.3003 23.9294 27.748 23.9294H27.6929H27.6565H22.4355C21.8833 23.9294 21.4355 24.3772 21.4355 24.9294C21.4355 25.4817 21.8833 25.9294 22.4355 25.9294H25.6699C24.967 26.6475 24.1223 27.2214 23.1824 27.6111C21.6567 28.2437 19.9648 28.3547 18.3696 27.9272C16.7744 27.4998 15.3647 26.5579 14.3596 25.2473C13.3545 23.937 12.8098 22.3313 12.8105 20.6799Z" fill="url(#paint0_linear_3844_2085)"/>
<defs>
<linearGradient id="paint0_linear_3844_2085" x1="30.6083" y1="35.5452" x2="0.310547" y2="9.64516" gradientUnits="userSpaceOnUse">
<stop stop-color="#2D6FB3"/>
<stop offset="1" stop-color="#7DBCFF"/>
</linearGradient>
</defs>
</svg>
