<svg width="41" height="41" viewBox="0 0 41 41" fill="none" xmlns="http://www.w3.org/2000/svg">
<path d="M20.1875 40.583C31.2332 40.583 40.1875 31.6287 40.1875 20.583C40.1875 9.53731 31.2332 0.583008 20.1875 0.583008C9.1418 0.583008 0.1875 9.53731 0.1875 20.583C0.1875 31.6287 9.1418 40.583 20.1875 40.583Z" fill="url(#paint0_linear_206_3077)"/>
<path d="M21.5938 24.5804H18.7812C18.3137 24.5804 17.9375 24.2042 17.9375 23.7366V17.8304H14.8543C14.2285 17.8304 13.9156 17.0745 14.3586 16.6315L19.7059 11.2808C19.9695 11.0171 20.402 11.0171 20.6656 11.2808L26.0164 16.6315C26.4594 17.0745 26.1465 17.8304 25.5207 17.8304H22.4375V23.7366C22.4375 24.2042 22.0613 24.5804 21.5938 24.5804ZM29.1875 24.2991V28.2366C29.1875 28.7042 28.8113 29.0804 28.3438 29.0804H12.0312C11.5637 29.0804 11.1875 28.7042 11.1875 28.2366V24.2991C11.1875 23.8315 11.5637 23.4554 12.0312 23.4554H16.8125V23.7366C16.8125 24.823 17.6949 25.7054 18.7812 25.7054H21.5938C22.6801 25.7054 23.5625 24.823 23.5625 23.7366V23.4554H28.3438C28.8113 23.4554 29.1875 23.8315 29.1875 24.2991ZM24.8281 27.3929C24.8281 27.0062 24.5117 26.6897 24.125 26.6897C23.7383 26.6897 23.4219 27.0062 23.4219 27.3929C23.4219 27.7796 23.7383 28.096 24.125 28.096C24.5117 28.096 24.8281 27.7796 24.8281 27.3929ZM27.0781 27.3929C27.0781 27.0062 26.7617 26.6897 26.375 26.6897C25.9883 26.6897 25.6719 27.0062 25.6719 27.3929C25.6719 27.7796 25.9883 28.096 26.375 28.096C26.7617 28.096 27.0781 27.7796 27.0781 27.3929Z" fill="white"/>
<defs>
<linearGradient id="paint0_linear_206_3077" x1="6.80656" y1="6.41634" x2="31.3899" y2="36.4163" gradientUnits="userSpaceOnUse">
<stop stop-color="#2DCEBC"/>
<stop offset="1" stop-color="#2DCE96"/>
</linearGradient>
</defs>
</svg>
