<svg width="41" height="41" viewBox="0 0 41 41" fill="none" xmlns="http://www.w3.org/2000/svg">
<path fill-rule="evenodd" clip-rule="evenodd" d="M20.3105 40.6794C31.3562 40.6794 40.3105 31.7251 40.3105 20.6794C40.3105 9.63379 31.3562 0.679443 20.3105 0.679443C9.26489 0.679443 0.310547 9.63379 0.310547 20.6794C0.310547 31.7251 9.26489 40.6794 20.3105 40.6794ZM16.7393 18.21C16.7485 17.2617 17.1294 16.3547 17.8 15.6841C18.4707 15.0134 19.3777 14.6326 20.3262 14.6233C21.2625 14.6111 22.1572 15.0005 22.8218 15.6335C23.5386 16.3167 23.9006 17.2388 23.9131 18.21C23.9189 18.6716 24.1555 18.9836 24.4717 19.1458C24.6211 19.2324 24.8027 19.2844 25.0164 19.2871C25.9648 19.2964 26.8718 19.6772 27.5425 20.3479C28.2131 21.0186 28.594 21.9255 28.6033 22.874C28.6155 23.8103 28.2261 24.7048 27.593 25.3696C26.9099 26.0864 25.9878 26.4485 25.0164 26.4609C23.5945 26.479 23.5928 28.6858 25.0164 28.6675C28.1992 28.6267 30.769 26.0566 30.8101 22.8738C30.8467 20.0369 28.6946 17.6863 26.0164 17.1807C25.5037 14.4907 23.1572 12.4529 20.3262 12.4165C17.5073 12.3801 15.1689 14.5042 14.6428 17.1582C11.9192 17.6438 9.84766 20.0059 9.81104 22.8608C9.77002 26.0437 12.4836 28.6143 15.6047 28.6543C17.0283 28.6726 17.0266 26.4661 15.6047 26.4478C14.6562 26.4382 13.7493 26.0574 13.0786 25.3867C12.408 24.7161 12.0271 23.8091 12.0178 22.8608C12.0056 21.9243 12.3948 21.0298 13.0281 20.365C13.6973 19.6626 14.5957 19.3013 15.5452 19.2749C16.1208 19.3093 16.7297 18.9541 16.7393 18.21ZM18.4587 23.874L20.3967 21.936L22.3347 23.874C22.6797 24.219 23.2388 24.219 23.5835 23.874C23.9285 23.5293 23.9285 22.97 23.5835 22.6252L21.0208 20.063C20.7192 19.7612 20.2534 19.7234 19.9106 19.9497C19.8616 19.9819 19.8152 20.0198 19.772 20.063L17.21 22.6252C16.865 22.97 16.865 23.5291 17.21 23.874C17.5547 24.219 18.1138 24.219 18.4587 23.874ZM21.2795 24.325C21.2795 23.8252 20.8745 23.4202 20.3745 23.4202C19.875 23.4202 19.47 23.8252 19.4697 24.325V28.0378C19.4697 28.5376 19.875 28.9429 20.3745 28.9429C20.8743 28.9429 21.2795 28.5376 21.2795 28.0378V24.325Z" fill="url(#paint0_linear_3844_2116)"/>
<defs>
<linearGradient id="paint0_linear_3844_2116"  x1="9.20449" y1="7.79167" x2="39.9337" y2="45.2917" gradientUnits="userSpaceOnUse">
<stop stop-color="#FFB272"/>
<stop offset="1" stop-color="#E88533"/>
</linearGradient>
</defs>
</svg>
