<svg width="41" height="41" viewBox="0 0 41 41" fill="none" xmlns="http://www.w3.org/2000/svg">
<path d="M40.3105 20.2329C40.3105 31.2786 31.3562 40.2329 20.3105 40.2329C9.26485 40.2329 0.310547 31.2786 0.310547 20.2329C0.310547 9.18721 9.26485 0.23291 20.3105 0.23291C31.3562 0.23291 40.3105 9.18721 40.3105 20.2329Z" fill="url(#paint0_linear_3854_1997)"/>
<path fill-rule="evenodd" clip-rule="evenodd" d="M16.3105 17.2329C16.3105 15.0238 18.1014 13.2329 20.3105 13.2329C22.5196 13.2329 24.3105 15.0238 24.3105 17.2329V18.2329H25.3105C27.2435 18.2329 28.8105 19.7999 28.8105 21.7329C28.8105 23.6659 27.2435 25.2329 25.3105 25.2329H25.2105C24.6582 25.2329 24.2105 25.6806 24.2105 26.2329C24.2105 26.7852 24.6582 27.2329 25.2105 27.2329H25.3105C28.3481 27.2329 30.8105 24.7705 30.8105 21.7329C30.8105 19.0122 28.835 16.7529 26.2401 16.3111C25.7967 13.435 23.3108 11.2329 20.3105 11.2329C17.3103 11.2329 14.8244 13.435 14.3809 16.3111C11.7861 16.7529 9.81055 19.0122 9.81055 21.7329C9.81055 24.7705 12.273 27.2329 15.3105 27.2329H15.4105C15.9628 27.2329 16.4105 26.7852 16.4105 26.2329C16.4105 25.6806 15.9628 25.2329 15.4105 25.2329H15.3105C13.3775 25.2329 11.8105 23.6659 11.8105 21.7329C11.8105 19.7999 13.3775 18.2329 15.3105 18.2329H16.3105V17.2329ZM21.3105 18.2329C21.3105 17.6806 20.8628 17.2329 20.3105 17.2329C19.7582 17.2329 19.3105 17.6806 19.3105 18.2329V23.8187L18.0177 22.5258C17.6271 22.1353 16.994 22.1353 16.6034 22.5258C16.2129 22.9163 16.2129 23.5495 16.6034 23.94L19.6034 26.94C19.9939 27.3305 20.6271 27.3305 21.0176 26.94L24.0176 23.94C24.4081 23.5495 24.4081 22.9163 24.0176 22.5258C23.6271 22.1353 22.9939 22.1353 22.6034 22.5258L21.3105 23.8187V18.2329Z" fill="white"/>
<defs>
<linearGradient id="paint0_linear_3854_1997" x1="6.92961" y1="6.06624" x2="31.5129" y2="36.0662" gradientUnits="userSpaceOnUse">
<stop stop-color="#d2a4f5"/>
<stop offset="1" stop-color="#775b8c"/>
</linearGradient>
</defs>
</svg>
